<?xml version="1.0" encoding="iso-8859-1"?>
<!-- Generator: Adobe Illustrator 19.0.0, SVG Export Plug-In . SVG Version: 6.00 Build 0)  -->
<svg version="1.1" id="Capa_1" xmlns="http://www.w3.org/2000/svg" xmlns:xlink="http://www.w3.org/1999/xlink" x="0px" y="0px"
	 viewBox="0 0 480 480" style="enable-background:new 0 0 480 480;" xml:space="preserve">
<path style="fill:#603813;" d="M8,112h464v312H8V112z"/>
<path style="fill:#8C6239;" d="M80,320H48c-22.091,0-40-17.909-40-40V112h464v168c0,22.091-17.909,40-40,40H80z"/>
<g>
	<path style="fill:#A67C52;" d="M80,112h48v192H80V112z"/>
	<path style="fill:#A67C52;" d="M128,352v-56H80v56l24,24L128,352z"/>
</g>
<path style="fill:#7D5D3E;" d="M104,376l-24-24v72h48v-72L104,376z"/>
<path style="fill:#A67C52;" d="M392,352v-56h-48v56l24,24L392,352z"/>
<path style="fill:#7D5D3E;" d="M368,376l-24-24v72h48v-72L368,376z"/>
<path style="fill:#A67C52;" d="M344,112h48v192h-48V112z"/>
<path style="fill:#CDA349;" d="M184,144h112v48H184V144z"/>
<path d="M472,104H312V72c0-13.255-10.745-24-24-24H184c-13.255,0-24,10.745-24,24v32H8c-4.418,0-8,3.582-8,8v312
	c0,4.418,3.582,8,8,8h464c4.418,0,8-3.582,8-8V112C480,107.582,476.418,104,472,104z M464,280c0,17.673-14.327,32-32,32h-32v-8h8
	c4.418,0,8-3.582,8-8v-56c0-4.418-3.582-8-8-8h-8V120h64V280z M136,248v40h-24v-8c0-4.418-3.582-8-8-8s-8,3.582-8,8v8H72v-40H136z
	 M400,248v40h-24v-8c0-4.418-3.582-8-8-8s-8,3.582-8,8v8h-24v-40H400z M328,232c-4.418,0-8,3.582-8,8v56c0,4.418,3.582,8,8,8h8v8
	H136v-8h8c4.418,0,8-3.582,8-8v-56c0-4.418-3.582-8-8-8h-8V120h200v112H328z M88,304h8v8c0,4.418,3.582,8,8,8s8-3.582,8-8v-8h8
	v44.688l-16,16l-16-16V304z M136,328h200v88H136V328z M352,328v-24h8v8c0,4.418,3.582,8,8,8s8-3.582,8-8v-8h8v44.688l-16,16l-16-16
	V328z M384,120v112h-32V120H384z M176,72c0-4.418,3.582-8,8-8h104c4.418,0,8,3.582,8,8v32H176V72z M120,120v112H88V120H120z M16,120
	h56v112h-8c-4.418,0-8,3.582-8,8v56c0,4.418,3.582,8,8,8h8v8H48c-17.673,0-32-14.327-32-32V120z M16,315.68
	c8.773,7.927,20.176,12.317,32,12.32h24v88H16V315.68z M88,416v-44.688l10.344,10.344c3.124,3.123,8.188,3.123,11.312,0L120,371.312
	V416H88z M352,416v-44.688l10.344,10.344c3.124,3.123,8.188,3.123,11.312,0L384,371.312V416H352z M400,416v-88h32
	c11.824-0.003,23.227-4.393,32-12.32V416H400z"/>
<path d="M296,136H184c-4.418,0-8,3.582-8,8v48c0,4.418,3.582,8,8,8h112c4.418,0,8-3.582,8-8v-48C304,139.582,300.418,136,296,136z
	 M288,184h-96v-32h96V184z"/>
<g>
</g>
<g>
</g>
<g>
</g>
<g>
</g>
<g>
</g>
<g>
</g>
<g>
</g>
<g>
</g>
<g>
</g>
<g>
</g>
<g>
</g>
<g>
</g>
<g>
</g>
<g>
</g>
<g>
</g>
</svg>
