<?xml version="1.0" encoding="iso-8859-1"?>
<!-- Generator: Adobe Illustrator 19.0.0, SVG Export Plug-In . SVG Version: 6.00 Build 0)  -->
<svg version="1.1" id="Capa_1" xmlns="http://www.w3.org/2000/svg" xmlns:xlink="http://www.w3.org/1999/xlink" x="0px" y="0px"
	 viewBox="0 0 511.998 511.998" style="enable-background:new 0 0 511.998 511.998;" xml:space="preserve">
<g>
	<path style="fill:#30C9B0;" d="M221.068,170.927L112.753,62.623v-1.664l0.588-0.598C147.099,26.616,191.974,8.031,239.7,8.031
		h2.008v157.194H239.7c-5.743,0-11.143,2.237-15.205,6.299l-3.427,3.427V170.927z"/>
	<path style="fill:#30C9B0;" d="M61.002,188.727v-2.008c0-47.724,18.589-92.596,52.34-126.348l1.42-1.421l110.322,110.311v1.665
		l-0.59,0.598c-4.061,4.051-6.297,9.447-6.297,15.193v2.008H61.002z"/>
</g>
<path style="fill:#44C973;" d="M328.433,295.655l46.759-110.943h43.206v34.997c0,41.877-34.07,75.947-75.946,75.947H328.433z"/>
<path style="fill:#30C9B0;" d="M239.7,212.239c-14.072,0-25.52-11.448-25.52-25.52c0-6.821,2.656-13.227,7.477-18.036
	c4.819-4.819,11.227-7.473,18.042-7.473c14.072,0,25.52,11.444,25.52,25.51C265.22,200.791,253.771,212.239,239.7,212.239z"/>
<path style="fill:#44C973;" d="M136.949,295.655c-41.878,0-75.947-34.07-75.947-75.947v-34.997h157.194v2.008
	c0,11.857,9.647,21.504,21.504,21.504c11.857,0,21.504-9.647,21.504-21.504v-2.008h118.346l-46.76,110.943H136.949z"/>
<g>
	<path style="fill:#30C9B0;" d="M238.786,370.256c-9.383,0-17.015-7.634-17.015-17.017v-3.925c0-9.383,7.634-17.016,17.015-17.016
		h9.418c9.383,0,17.015,7.634,17.015,17.016v3.925c0,9.383-7.634,17.017-17.015,17.017H238.786z"/>
	<path style="fill:#30C9B0;" d="M331.459,461.633c-4.308,0-8.535-1.135-12.225-3.285c-7.523-4.343-12.201-12.442-12.201-21.131
		s4.677-16.788,12.208-21.135c3.682-2.145,7.91-3.281,12.218-3.281c4.293,0,8.514,1.131,12.211,3.273
		c7.527,4.356,12.205,12.458,12.205,21.143c0,8.685-4.677,16.787-12.206,21.144C339.973,460.502,335.752,461.633,331.459,461.633z"
		/>
	<path style="fill:#30C9B0;" d="M155.532,461.633c-4.293,0-8.514-1.131-12.211-3.273c-7.532-4.341-12.215-12.444-12.215-21.144
		c0-8.699,4.682-16.802,12.219-21.146c3.692-2.138,7.914-3.27,12.207-3.27s8.514,1.131,12.211,3.273
		c7.527,4.356,12.205,12.458,12.205,21.143c0,8.685-4.677,16.787-12.206,21.144C164.046,460.502,159.824,461.633,155.532,461.633z"
		/>
</g>
<path d="M136.949,303.686h12.022c9.96,20.803,26.99,37.605,47.642,47.579c-7.744,3.694-15.005,8.333-21.506,13.773
	c-6.36-1.724-12.919-2.602-19.575-2.602c-13.155,0-26.091,3.468-37.399,10.02c-23.059,13.323-37.383,38.138-37.383,64.761
	c0,26.611,14.324,51.426,37.372,64.755c0.004,0.002,0.008,0.004,0.011,0.006c0.001,0,0.001,0.001,0.002,0.001
	c0.001,0,0.002,0.001,0.003,0.001c11.315,6.554,24.246,10.018,37.394,10.018c13.156,0,26.088-3.467,37.384-10.018l0.001-0.001h0.001
	c0.002-0.001,0.004-0.002,0.006-0.003c20.127-11.639,33.596-32.027,36.695-54.721h27.742c3.099,22.694,16.568,43.081,36.686,54.716
	c0.005,0.003,0.01,0.005,0.015,0.008h0.001l0.001,0.001c11.315,6.554,24.246,10.018,37.394,10.018
	c13.159,0,26.094-3.469,37.393-10.022c23.056-13.334,37.378-38.149,37.378-64.76c0-26.623-14.325-51.438-37.367-64.753
	c-11.311-6.562-24.245-10.029-37.405-10.029c-6.664,0-13.226,0.876-19.583,2.6c-6.5-5.436-13.76-10.073-21.501-13.767
	c7.236-3.477,14.075-7.794,20.325-12.891c11.58-9.425,20.926-21.322,27.32-34.692h4.432c46.305,0,83.977-37.672,83.977-83.978
	v-32.989c0-5.545-4.496-10.039-10.039-10.039h-24.742l23.816-56.511h33.524c5.544,0,10.039-4.495,10.039-10.039
	c0-5.545-4.496-10.039-10.039-10.039h-40.187c-4.038,0-7.683,2.419-9.251,6.141l-29.69,70.448h-98.145
	c-3.282-10.435-11.536-18.687-21.975-21.967V10.039C249.74,4.495,245.244,0,239.7,0c-49.871,0-96.762,19.42-132.037,54.682
	c-0.09,0.09-0.18,0.183-0.266,0.276c-35.101,35.24-54.427,82.017-54.427,131.762v32.989
	C52.971,266.014,90.643,303.686,136.949,303.686z M337.634,426.501c3.82,2.211,6.193,6.317,6.193,10.716s-2.373,8.506-6.197,10.719
	c-1.889,1.094-3.966,1.649-6.171,1.649c-2.181,0-4.311-0.569-6.195-1.668c-3.814-2.202-6.183-6.303-6.183-10.702
	c0-4.399,2.369-8.499,6.217-10.721c1.85-1.078,3.981-1.647,6.161-1.647C333.664,424.85,335.741,425.405,337.634,426.501z
	 M277.699,427.179c2.3-12.23,8.732-23.373,18.183-31.493l11.461,19.855c-3.024,3.369-5.317,7.337-6.724,11.638H277.699z
	 M257.361,427.179H229.62c-2.93-21.472-15.143-40.864-33.48-52.739c6.327-4.062,13.262-7.282,20.504-9.509
	c4.207,7.937,12.552,13.358,22.143,13.358h9.418c9.589,0,17.934-5.42,22.141-13.356c7.237,2.228,14.172,5.445,20.498,9.506
	C272.503,386.318,260.291,405.709,257.361,427.179z M186.363,427.179c-1.407-4.301-3.7-8.269-6.723-11.64l11.461-19.856
	c9.446,8.114,15.881,19.261,18.181,31.495L186.363,427.179L186.363,427.179z M149.34,447.926c-3.817-2.2-6.187-6.303-6.187-10.708
	s2.37-8.508,6.207-10.719c1.862-1.079,3.997-1.649,6.171-1.649c2.206,0,4.283,0.555,6.175,1.652
	c3.82,2.211,6.193,6.317,6.193,10.716s-2.373,8.506-6.197,10.719c-1.889,1.094-3.965,1.649-6.171,1.649
	C153.357,449.586,151.223,449.016,149.34,447.926z M253.173,353.006c0,0.005,0,0.011,0,0.016v0.218c0,2.74-2.229,4.969-4.968,4.969
	h-9.418c-2.74,0-4.968-2.23-4.968-4.969v-3.925c0-2.74,2.229-4.969,4.968-4.969h9.418c2.74,0,4.968,2.23,4.968,4.969V353.006z
	 M172.107,385.078c0.482,0.293,0.987,0.534,1.504,0.739l-11.353,19.669c-2.204-0.467-4.456-0.715-6.726-0.715
	c-2.271,0-4.526,0.249-6.728,0.715l-11.468-19.858c5.811-2.047,11.967-3.114,18.196-3.114
	C161.196,382.514,166.759,383.379,172.107,385.078z M119.955,395.683l11.462,19.849c-3.027,3.37-5.32,7.342-6.728,11.647h-22.918
	C104.071,414.946,110.506,403.799,119.955,395.683z M101.772,447.257h22.917c1.409,4.308,3.702,8.28,6.727,11.65l-11.46,19.845
	C110.509,470.633,104.073,459.487,101.772,447.257z M137.335,488.807l11.468-19.858c2.204,0.467,4.457,0.716,6.728,0.716
	c2.27,0,4.524-0.249,6.727-0.715l11.463,19.86c-5.806,2.046-11.96,3.112-18.19,3.112
	C149.303,491.922,143.147,490.855,137.335,488.807z M191.098,478.748l-11.459-19.851c3.023-3.371,5.316-7.34,6.723-11.64h22.919
	C206.981,459.484,200.546,470.628,191.098,478.748z M277.699,447.257h22.918c1.408,4.306,3.701,8.275,6.723,11.642l-11.458,19.851
	C286.436,470.632,280,459.486,277.699,447.257z M313.261,488.806l11.462-19.858c2.205,0.467,4.461,0.716,6.736,0.716
	c2.27,0,4.524-0.249,6.727-0.715l11.463,19.86c-5.806,2.046-11.96,3.112-18.19,3.112
	C325.229,491.922,319.073,490.854,313.261,488.806z M367.026,478.748l-11.459-19.851c3.023-3.371,5.316-7.34,6.723-11.64h22.918
	C382.907,459.484,376.474,470.628,367.026,478.748z M385.209,427.179H362.29c-1.408-4.301-3.7-8.269-6.723-11.64l11.461-19.855
	C376.474,403.797,382.909,414.944,385.209,427.179z M349.649,385.627l-11.463,19.859c-2.204-0.467-4.456-0.715-6.726-0.715
	c-2.276,0-4.533,0.249-6.736,0.716l-11.465-19.862c5.831-2.059,11.95-3.11,18.201-3.11
	C337.687,382.514,343.84,383.58,349.649,385.627z M298.017,322.811c-8.194,6.682-17.631,11.711-27.673,14.809
	c-4.207-7.934-12.551-13.353-22.14-13.353h-9.418c-9.593,0-17.94,5.424-22.147,13.365c-18.442-5.699-34.399-17.86-44.734-33.946
	H315.09C310.48,310.886,304.715,317.361,298.017,322.811z M406.351,196.759v22.95c0,33.823-26.418,61.577-59.702,63.747
	l36.538-86.696h23.165V196.759z M230.173,177.203c2.498-2.497,5.802-3.884,9.323-3.936c0.068,0.001,0.135,0.01,0.203,0.01
	c0.067,0,0.132-0.009,0.199-0.01c7.337,0.107,13.274,6.096,13.274,13.453c0,7.429-6.045,13.473-13.473,13.473
	c-7.428,0-13.473-6.044-13.473-13.473C226.228,183.122,227.626,179.745,230.173,177.203z M229.661,154.704
	c-1.899,0.593-3.739,1.354-5.501,2.278l-94.987-94.978c28.017-24.887,63.083-39.422,100.489-41.63L229.661,154.704L229.661,154.704z
	 M114.978,76.205l94.978,94.969c-0.926,1.764-1.689,3.605-2.282,5.507H73.344C75.552,139.278,90.088,104.218,114.978,76.205z
	 M73.049,196.759h134.636c4.278,13.611,17.011,23.512,32.015,23.512s27.737-9.901,32.015-23.512h89.682l-36.602,86.849H155.532
	h-18.583c-35.235,0-63.9-28.665-63.9-63.9C73.049,219.708,73.049,196.759,73.049,196.759z"/>
<path d="M124.746,266.039h56.22c5.544,0,10.039-4.495,10.039-10.039c0-5.545-4.496-10.039-10.039-10.039h-56.22
	c-5.544,0-10.039,4.495-10.039,10.039C114.707,261.545,119.202,266.039,124.746,266.039z"/>
<path d="M213.091,266.039c12.919,0,12.941-20.078,0-20.078C200.172,245.961,200.151,266.039,213.091,266.039z"/>
<g>
</g>
<g>
</g>
<g>
</g>
<g>
</g>
<g>
</g>
<g>
</g>
<g>
</g>
<g>
</g>
<g>
</g>
<g>
</g>
<g>
</g>
<g>
</g>
<g>
</g>
<g>
</g>
<g>
</g>
</svg>
