<?xml version="1.0" encoding="iso-8859-1"?>
<!-- Generator: Adobe Illustrator 19.0.0, SVG Export Plug-In . SVG Version: 6.00 Build 0)  -->
<svg version="1.1" id="Capa_1" xmlns="http://www.w3.org/2000/svg" xmlns:xlink="http://www.w3.org/1999/xlink" x="0px" y="0px"
	 viewBox="0 0 480.13 480.13" style="enable-background:new 0 0 480.13 480.13;" xml:space="preserve">
<g>
	<path style="fill:#4D4D4D;" d="M334.987,357.576l-66.568-66.568l22.624-22.624l65.568,65.568L334.987,357.576z"/>
	<path style="fill:#4D4D4D;" d="M122.987,334.616l66.232-66.232l22.624,22.624l-67.568,67.568L122.987,334.616z"/>
	<path style="fill:#4D4D4D;" d="M211.843,189.184l-67.376-69.752l-26.152,21.48l70.904,70.896L211.843,189.184z"/>
	<path style="fill:#4D4D4D;" d="M88.131,224.096h96v32h-96V224.096z"/>
	<path style="fill:#4D4D4D;" d="M224.131,296.096h32v96h-32V296.096z"/>
	<path style="fill:#4D4D4D;" d="M296.131,224.096h96v32h-96V224.096z"/>
	<path style="fill:#4D4D4D;" d="M295.307,207.656l59.136-57.6l-22.128-24.776l-59.672,59.68L295.307,207.656z"/>
	<path style="fill:#4D4D4D;" d="M224.131,88.096h32v96h-32V88.096z"/>
</g>
<path style="fill:#B3B3B3;" d="M240.131,72.096c-92.784,0-168,75.216-168,168s75.216,168,168,168s168-75.216,168-168
	S332.914,72.096,240.131,72.096z M240.131,384.096c-79.529,0-144-64.471-144-144s64.471-144,144-144s144,64.471,144,144
	S319.66,384.096,240.131,384.096z"/>
<path style="fill:#333333;" d="M240.131,8.096c-128.13,0-232,103.87-232,232s103.87,232,232,232s232-103.87,232-232
	S368.261,8.096,240.131,8.096z M240.131,408.096c-92.784,0-168-75.216-168-168s75.216-168,168-168s168,75.216,168,168
	S332.914,408.096,240.131,408.096z"/>
<circle style="fill:#B3B3B3;" cx="240.131" cy="240.096" r="64"/>
<path style="fill:#ED1C24;" d="M240.131,120.096l16,16l26.664-21.336l-18.664-18.664L240.131,120.096z"/>
<path style="fill:#29ABE2;" d="M388.131,8.096c-22.485-0.023-44.033,9.001-59.792,25.04l-64.208,62.96l18.664,18.664l21.6-17.28
	c3,46.268,42.94,81.344,89.208,78.344s81.344-42.94,78.344-89.208C469.082,42.437,432.403,8.075,388.131,8.096z"/>
<circle style="fill:#E6E6E6;" cx="388.131" cy="92.096" r="60"/>
<path d="M240.131,480.096c132.526,0.022,239.978-107.395,239.999-239.921c0.005-31.859-6.334-63.4-18.647-92.783
	c30.61-40.494,22.598-98.135-17.896-128.745c-32.813-24.804-78.11-24.787-110.904,0.041
	C210.402-32.465,69.807,25.196,18.654,147.476s6.508,262.875,128.788,314.028C176.8,473.785,208.307,480.105,240.131,480.096z
	 M334.035,38.752c29.437-29.952,77.581-30.37,107.533-0.933c29.952,29.437,30.37,77.581,0.933,107.533
	c-29.437,29.952-77.581,30.37-107.533,0.933c-13.334-13.104-21.372-30.661-22.581-49.317c-0.281-4.409-4.083-7.756-8.493-7.475
	c-1.64,0.105-3.208,0.712-4.491,1.739l-16,12.8l-7.96-7.936l55.344-55.344C332.015,40.357,333.129,39.671,334.035,38.752
	L334.035,38.752z M240.131,296.096c-30.928,0-56-25.072-56-56s25.072-56,56-56s56,25.072,56,56
	C296.091,271.008,271.042,296.056,240.131,296.096z M248.131,311.624v64.064c-2.664,0.16-5.296,0.408-8,0.408s-5.336-0.248-8-0.408
	v-64.064C237.445,312.254,242.816,312.254,248.131,311.624z M195.243,183.896c-4.175,3.343-7.969,7.137-11.312,11.312
	l-45.312-45.312c3.552-3.984,7.328-7.76,11.312-11.312L195.243,183.896z M162.531,128.56c16.048-11.197,34.336-18.777,53.6-22.216
	v65.952c-2.369,0.843-4.692,1.81-6.96,2.896L162.531,128.56z M175.227,209.136c-1.086,2.268-2.053,4.591-2.896,6.96h-65.952
	c3.439-19.264,11.019-37.552,22.216-53.6L175.227,209.136z M168.603,232.096c-0.63,5.315-0.63,10.685,0,16h-64.064
	c-0.16-2.664-0.408-5.296-0.408-8s0.248-5.336,0.408-8H168.603z M172.331,264.096c0.843,2.369,1.81,4.692,2.896,6.96l-46.632,46.64
	c-11.197-16.048-18.777-34.336-22.216-53.6L172.331,264.096z M183.931,284.984c3.343,4.175,7.137,7.969,11.312,11.312
	l-45.312,45.312c-3.984-3.552-7.76-7.328-11.312-11.312L183.931,284.984z M209.171,304.984c2.268,1.086,4.591,2.053,6.96,2.896
	v65.952c-19.264-3.439-37.552-11.019-53.6-22.216L209.171,304.984z M234.475,125.736l13.656,13.672v29.16
	c-5.315-0.63-10.685-0.63-16,0v-64.064c2.664-0.16,5.296-0.408,8-0.408c1.504,0,3,0.136,4.504,0.184l-10.16,10.16
	c-3.123,3.124-3.123,8.188,0,11.312L234.475,125.736z M264.131,307.896c2.369-0.843,4.692-1.81,6.96-2.896l46.64,46.632
	c-16.048,11.197-34.336,18.777-53.6,22.216L264.131,307.896z M285.019,296.296c4.175-3.343,7.969-7.137,11.312-11.312l45.312,45.312
	c-3.552,3.984-7.328,7.76-11.312,11.312L285.019,296.296z M305.019,271.056c1.086-2.268,2.053-4.591,2.896-6.96h65.952
	c-3.439,19.264-11.019,37.552-22.216,53.6L305.019,271.056z M311.659,248.096c0.63-5.315,0.63-10.685,0-16h64
	c0.16,2.664,0.456,5.304,0.456,8c0,2.696-0.248,5.336-0.408,8H311.659z M307.931,216.096c-0.822-2.32-1.764-4.595-2.824-6.816
	l38.008-37.024c6.073,3.404,12.515,6.104,19.2,8.048c5.49,11.333,9.36,23.382,11.496,35.792H307.931z M296.459,195.376
	c-3.37-4.244-7.208-8.095-11.44-11.48l32.8-32.8c3.602,4.316,7.589,8.295,11.912,11.888L296.459,195.376z M271.091,175.192
	c-2.268-1.086-4.591-2.053-6.96-2.896v-32.352l34.4-27.496c2.041,8.904,5.409,17.45,9.992,25.352L271.091,175.192z M256.691,125.376
	l-5.28-5.28l12.72-12.688l6.688,6.688L256.691,125.376z M259.435,89.448c-6.4-0.854-12.847-1.306-19.304-1.352
	C156.157,88.07,88.062,156.123,88.036,240.097s68.027,152.069,152.001,152.095c83.974,0.026,152.069-68.027,152.095-152.001
	c0.006-19.314-3.668-38.452-10.825-56.391c2.256,0.168,4.528,0.296,6.824,0.296c0.584,0,1.144-0.08,1.72-0.088
	c30.937,82.731-11.05,174.876-93.781,205.813s-174.876-11.05-205.813-93.781s11.05-174.876,93.781-205.813
	c17.94-6.709,36.94-10.14,56.093-10.131c8.865,0.017,17.714,0.763,26.456,2.232L259.435,89.448z M240.131,16.096
	c26.807-0.037,53.399,4.771,78.496,14.192l-38.4,38.4c-94.646-22.144-189.323,36.63-211.468,131.276s36.63,189.323,131.276,211.468
	c94.646,22.144,189.323-36.63,211.468-131.276c3.072-13.132,4.625-26.573,4.628-40.06c-0.034-19.691-3.39-39.234-9.928-57.808
	c16.138-3.263,31.1-10.813,43.312-21.856c43.997,115.624-14.068,245.022-129.691,289.019S74.801,435.384,30.804,319.76
	S44.872,74.738,160.495,30.741C185.93,21.062,212.916,16.1,240.131,16.096L240.131,16.096z"/>
<path d="M220.131,208.096c-6.627,0-12,5.373-12,12s5.373,12,12,12s12-5.373,12-12S226.758,208.096,220.131,208.096z
	 M220.131,224.096c-2.209,0-4-1.791-4-4s1.791-4,4-4s4,1.791,4,4S222.34,224.096,220.131,224.096z"/>
<path d="M260.131,208.096c-6.627,0-12,5.373-12,12s5.373,12,12,12s12-5.373,12-12S266.758,208.096,260.131,208.096z
	 M260.131,224.096c-2.209,0-4-1.791-4-4s1.791-4,4-4s4,1.791,4,4S262.34,224.096,260.131,224.096z"/>
<path d="M260.131,248.096c-6.627,0-12,5.373-12,12s5.373,12,12,12s12-5.373,12-12S266.758,248.096,260.131,248.096z
	 M260.131,264.096c-2.209,0-4-1.791-4-4s1.791-4,4-4s4,1.791,4,4S262.34,264.096,260.131,264.096z"/>
<path d="M220.131,248.096c-6.627,0-12,5.373-12,12s5.373,12,12,12s12-5.373,12-12S226.758,248.096,220.131,248.096z
	 M220.131,264.096c-2.209,0-4-1.791-4-4s1.791-4,4-4s4,1.791,4,4S222.34,264.096,220.131,264.096z"/>
<path d="M388.131,160.096c37.555,0,68-30.445,68-68s-30.445-68-68-68s-68,30.445-68,68
	C320.175,129.633,350.594,160.052,388.131,160.096z M388.131,40.096c28.719,0,52,23.281,52,52s-23.281,52-52,52s-52-23.281-52-52
	C336.166,63.392,359.426,40.131,388.131,40.096z"/>
<path d="M376.195,91.472c0,0.208-0.064,0.408-0.064,0.624c0,6.627,5.373,12,12,12c0.855-0.004,1.708-0.097,2.544-0.28
	c0.476,0.136,0.963,0.23,1.456,0.28c2.122,0,4.156-0.844,5.656-2.344c1.831-1.878,2.605-4.545,2.064-7.112
	c0.183-0.836,0.276-1.689,0.28-2.544c0-6.627-5.373-12-12-12c-0.216,0-0.416,0.048-0.624,0.064l-21.72-21.72
	c-3.178-3.07-8.242-2.982-11.312,0.196c-2.995,3.1-2.995,8.016,0,11.116L376.195,91.472z"/>
<g>
</g>
<g>
</g>
<g>
</g>
<g>
</g>
<g>
</g>
<g>
</g>
<g>
</g>
<g>
</g>
<g>
</g>
<g>
</g>
<g>
</g>
<g>
</g>
<g>
</g>
<g>
</g>
<g>
</g>
</svg>
