<?xml version="1.0" encoding="iso-8859-1"?>
<!-- Generator: Adobe Illustrator 19.0.0, SVG Export Plug-In . SVG Version: 6.00 Build 0)  -->
<svg version="1.1" id="Capa_1" xmlns="http://www.w3.org/2000/svg" xmlns:xlink="http://www.w3.org/1999/xlink" x="0px" y="0px"
	 viewBox="0 0 511.908 511.908" style="enable-background:new 0 0 511.908 511.908;" xml:space="preserve">
<g>
	<path style="fill:#E6E9ED;" d="M247.073,155.973c-1.914,2.077-3.117,4.878-3.117,7.998s1.203,5.921,3.117,7.999h-51.109v-15.997
		H247.073z"/>
	<path style="fill:#E6E9ED;" d="M315.943,155.973v15.997h-51.029h-0.078c0,0,0.078,0,0-0.078c1.999-2.082,3.116-4.883,3.116-7.921
		s-1.117-5.839-3.116-7.92l0.078-0.078L315.943,155.973L315.943,155.973z"/>
</g>
<rect x="195.964" y="155.974" style="fill:#FFFFFF;" width="119.98" height="7.998"/>
<path style="fill:#E6E9ED;" d="M79.986,425.283c0.562,0.641,61.348,66.629,175.968,66.629c114.699,0,175.493-65.988,176.047-66.629
	l5.921-7.038c3.921,11.201,5.998,17.677,5.998,17.677s-63.988,71.987-187.966,71.987S67.988,435.922,67.988,435.922
	s2.078-6.476,5.999-17.677L79.986,425.283z"/>
<path style="fill:#EC87C0;" d="M211.961,4h87.985v3.999c0,24.315-19.676,43.992-43.993,43.992
	c-24.237,0-43.992-19.677-43.992-43.992V4z"/>
<g style="opacity:0.2;">
	<path d="M211.961,4h87.985v3.999c0,24.315-19.676,43.992-43.993,43.992c-24.237,0-43.992-19.677-43.992-43.992V4z"/>
</g>
<g style="opacity:0.2;">
	<path d="M255.954,43.992c-22.894,0-41.766-17.56-43.789-39.992h-0.203v3.999c0,24.315,19.755,43.992,43.992,43.992
		c24.317,0,43.993-19.677,43.993-43.992V4h-0.203C297.728,26.433,278.919,43.992,255.954,43.992z"/>
</g>
<path style="fill:#FFCE54;" d="M247.073,155.973c2.164-2.48,5.358-4,8.881-4c3.601,0,6.796,1.602,8.882,4.078
	c1.999,2.081,3.116,4.882,3.116,7.92s-1.117,5.839-3.116,7.921c0.078,0.078,0,0.078,0,0.078c-2.164,2.479-5.359,3.999-8.882,3.999
	c-3.522,0-6.717-1.52-8.881-3.999c-1.914-2.078-3.117-4.879-3.117-7.999S245.159,158.05,247.073,155.973z"/>
<g style="opacity:0.5;">
	<path style="fill:#FFFFFF;" d="M255.071,171.97c-1.913-2.078-3.116-4.879-3.116-7.999s1.203-5.921,3.116-7.998
		c1.297-1.484,2.985-2.566,4.867-3.242c-1.249-0.449-2.569-0.758-3.984-0.758c-3.522,0-6.717,1.52-8.881,4
		c-1.914,2.077-3.117,4.878-3.117,7.998s1.203,5.921,3.117,7.999c2.164,2.479,5.358,3.999,8.881,3.999c1.407,0,2.743-0.301,4-0.754
		C258.063,174.539,256.368,173.457,255.071,171.97z"/>
</g>
<g style="opacity:0.2;">
	<path d="M256.836,155.973c1.915,2.077,3.117,4.878,3.117,7.998s-1.202,5.921-3.117,7.999c-1.297,1.483-2.984,2.565-4.866,3.241
		c1.25,0.449,2.57,0.758,3.983,0.758c3.523,0,6.718-1.52,8.882-3.999c1.913-2.078,3.116-4.879,3.116-7.999s-1.203-5.921-3.116-7.998
		c-2.164-2.48-5.359-4-8.882-4c-1.406,0-2.741,0.301-3.999,0.754C253.845,153.402,255.539,154.484,256.836,155.973z"/>
</g>
<path style="fill:#EC87C0;" d="M211.961,4v3.999c0,24.315,19.755,43.992,43.992,43.992c24.317,0,43.993-19.677,43.993-43.992V4
	h48.069c8.803,0,15.997,7.119,15.997,15.997v47.991c0,4.397-3.601,7.998-7.998,7.998h-26.956l-13.115,71.987v7.999h-51.029
	l-0.078,0.078c-2.086-2.477-5.281-4.078-8.882-4.078c-3.522,0-6.717,1.52-8.881,4h-51.109v-7.999L182.85,75.986h-26.878
	c-4.398,0-7.999-3.601-7.999-7.998V19.997C147.973,11.119,155.175,4,163.97,4C163.97,4,211.961,4,211.961,4z"/>
<g style="opacity:0.4;">
	<path style="fill:#FFFFFF;" d="M155.972,67.988V19.997c0-8.878,7.201-15.997,15.997-15.997h-7.999
		c-8.795,0-15.997,7.119-15.997,15.997v47.991c0,4.397,3.601,7.998,7.999,7.998h7.998C159.573,75.986,155.972,72.386,155.972,67.988
		z"/>
	<polygon style="fill:#FFFFFF;" points="187.966,59.989 179.967,59.989 195.964,147.974 195.964,155.973 203.963,155.973 
		203.963,147.974 	"/>
</g>
<g style="opacity:0.2;">
	<path d="M355.936,67.988V19.997c0-8.878-7.202-15.997-15.997-15.997h7.998c8.795,0,15.997,7.119,15.997,15.997v47.991
		c0,4.397-3.601,7.998-7.998,7.998h-7.999C352.336,75.986,355.936,72.386,355.936,67.988z"/>
	<polygon points="323.941,59.989 331.94,59.989 315.943,147.974 315.943,155.973 307.945,155.973 307.945,147.974 	"/>
</g>
<path style="fill:#EC87C0;" d="M255.954,491.912c-114.62,0-175.406-65.988-175.968-66.629l-5.999-7.038
	c15.2-43.031,58.466-155.729,121.978-238.277v-7.998h51.108c2.164,2.479,5.358,3.999,8.881,3.999s6.718-1.52,8.882-3.999h0.078
	h51.029v7.998c63.512,82.548,106.777,195.246,121.979,238.277l-5.921,7.038C431.446,425.924,370.652,491.912,255.954,491.912z"/>
<g style="opacity:0.4;">
	<path style="fill:#FFFFFF;" d="M80.025,447.256c0,0,6.038-17.81,9.959-29.011c15.2-43.031,50.467-151.23,113.979-233.778V171.97
		h-7.999v7.998C132.453,262.516,89.187,375.214,73.987,418.245c-3.921,11.201-5.999,17.677-5.999,17.677L80.025,447.256z"/>
</g>
<g style="opacity:0.2;">
	<path d="M431.884,447.256c0,0-6.038-17.81-9.96-29.011c-15.2-43.031-50.467-151.23-113.979-233.778V171.97h7.998v7.998
		c63.512,82.548,106.777,195.246,121.979,238.277c3.921,11.201,5.998,17.677,5.998,17.677L431.884,447.256z"/>
</g>
<path style="fill:#FFFFFF;" d="M80.025,447.256c0.008-0.016,2.679-7.905,5.624-16.481c-3.578-3.265-5.569-5.382-5.663-5.491
	l-5.999-7.038c-3.921,11.201-5.999,17.677-5.999,17.677l12.014,11.311C80.009,447.24,80.017,447.248,80.025,447.256z"/>
<g>
	<path style="fill:#3A3847;" d="M67.988,439.921c-0.398,0-0.805-0.062-1.203-0.188c-2.109-0.664-3.272-2.913-2.609-5.015
		c0.477-1.531,49.124-153.848,128.618-257.188c1.351-1.758,3.858-2.074,5.608-0.734c1.75,1.347,2.078,3.858,0.734,5.608
		c-78.627,102.208-126.86,253.204-127.337,254.72C71.26,438.836,69.69,439.921,67.988,439.921z"/>
	<path style="fill:#3A3847;" d="M443.92,439.921c-1.702,0-3.272-1.085-3.812-2.796c-0.477-1.516-48.71-152.512-127.336-254.72
		c-1.344-1.75-1.016-4.262,0.733-5.608c1.734-1.348,4.258-1.031,5.609,0.734c79.493,103.34,128.141,255.656,128.617,257.188
		c0.664,2.102-0.5,4.351-2.609,5.015C444.725,439.858,444.318,439.921,443.92,439.921z"/>
	<path style="fill:#3A3847;" d="M255.954,511.908c-124.337,0-190.302-72.597-190.958-73.33c-1.46-1.648-1.312-4.172,0.336-5.641
		c1.632-1.468,4.163-1.327,5.639,0.328c0.633,0.703,64.403,70.645,184.982,70.645c120.581,0,184.35-69.941,184.983-70.645
		c1.461-1.655,3.991-1.796,5.64-0.328c1.648,1.469,1.797,3.992,0.336,5.641C446.256,439.311,380.291,511.908,255.954,511.908z"/>
	<path style="fill:#3A3847;" d="M255.954,495.911c-116.799,0-178.421-67.309-179.022-67.987c-1.476-1.648-1.335-4.164,0.305-5.641
		c1.617-1.483,4.164-1.343,5.64,0.289c0.594,0.656,60.638,65.34,173.078,65.34c112.441,0,172.485-64.684,173.079-65.34
		c1.477-1.624,4.022-1.765,5.64-0.289c1.641,1.477,1.781,3.992,0.305,5.641C434.375,428.602,372.754,495.911,255.954,495.911z"/>
	<path style="fill:#3A3847;" d="M315.951,151.973c-0.242,0-0.484-0.02-0.727-0.066c-2.171-0.395-3.608-2.476-3.218-4.647
		l15.998-87.986c0.398-2.179,2.508-3.659,4.655-3.218c2.171,0.395,3.608,2.477,3.218,4.647l-15.997,87.984
		C319.529,150.622,317.842,151.973,315.951,151.973z"/>
	<path style="fill:#3A3847;" d="M195.956,151.973c-1.89,0-3.577-1.351-3.929-3.284l-15.996-87.985
		c-0.391-2.171,1.047-4.253,3.218-4.647c2.133-0.434,4.257,1.039,4.656,3.218l15.997,87.984c0.391,2.172-1.046,4.253-3.218,4.647
		C196.441,151.953,196.199,151.973,195.956,151.973z"/>
	<path style="fill:#3A3847;" d="M147.973,23.996c-2.21,0-3.999-1.789-3.999-3.999C143.974,8.972,152.941,0,163.97,0
		c2.211,0,4,1.789,4,4c0,2.21-1.789,3.999-4,3.999c-6.616,0-11.998,5.382-11.998,11.998
		C151.973,22.207,150.184,23.996,147.973,23.996z"/>
	<path style="fill:#3A3847;" d="M147.973,71.987c-2.21,0-3.999-1.789-3.999-3.999V19.997c0-2.211,1.789-4,3.999-4
		c2.211,0,4,1.789,4,4v47.991C151.973,70.198,150.184,71.987,147.973,71.987z"/>
	<path style="fill:#3A3847;" d="M171.969,79.986h-15.997c-2.211,0-4-1.789-4-4c0-2.21,1.789-3.999,4-3.999h15.997
		c2.21,0,3.999,1.789,3.999,3.999C175.968,78.197,174.179,79.986,171.969,79.986z"/>
	<path style="fill:#3A3847;" d="M211.961,7.999H163.97c-2.21,0-3.999-1.789-3.999-3.999c0-2.211,1.789-4,3.999-4h47.991
		c2.211,0,4,1.789,4,4C215.961,6.21,214.172,7.999,211.961,7.999z"/>
	<path style="fill:#3A3847;" d="M155.972,79.986c-6.616,0-11.998-5.382-11.998-11.998c0-2.211,1.789-3.999,3.999-3.999
		c2.211,0,4,1.788,4,3.999c0,2.206,1.796,3.999,4,3.999c2.21,0,3.999,1.789,3.999,3.999
		C159.971,78.197,158.182,79.986,155.972,79.986z"/>
	<path style="fill:#3A3847;" d="M363.966,23.996c-2.21,0-3.999-1.789-3.999-3.999c0-6.616-5.382-11.998-11.998-11.998
		c-2.211,0-3.999-1.789-3.999-3.999c0-2.211,1.788-4,3.999-4c11.029,0,19.996,8.972,19.996,19.997
		C367.965,22.207,366.177,23.996,363.966,23.996z"/>
	<path style="fill:#3A3847;" d="M363.966,71.987c-2.21,0-3.999-1.789-3.999-3.999V19.997c0-2.211,1.789-4,3.999-4
		c2.211,0,3.999,1.789,3.999,4v47.991C367.965,70.198,366.177,71.987,363.966,71.987z"/>
	<path style="fill:#3A3847;" d="M355.968,79.986h-15.997c-2.211,0-4-1.789-4-4c0-2.21,1.789-3.999,4-3.999h15.997
		c2.21,0,3.999,1.789,3.999,3.999C359.967,78.197,358.178,79.986,355.968,79.986z"/>
	<path style="fill:#3A3847;" d="M347.969,7.999h-48.022c-2.21,0-3.999-1.789-3.999-3.999c0-2.211,1.789-4,3.999-4h48.022
		c2.211,0,4,1.789,4,4C351.969,6.21,350.18,7.999,347.969,7.999z"/>
	<path style="fill:#3A3847;" d="M355.968,79.986c-2.211,0-3.999-1.789-3.999-4c0-2.21,1.788-3.999,3.999-3.999
		c2.202,0,3.999-1.793,3.999-3.999c0-2.211,1.789-3.999,3.999-3.999c2.211,0,3.999,1.788,3.999,3.999
		C367.965,74.604,362.584,79.986,355.968,79.986z"/>
	<path style="fill:#3A3847;" d="M255.954,55.99c-26.464,0-47.991-21.527-47.991-47.991c0-2.211,1.789-3.999,3.999-3.999
		c2.211,0,4,1.788,4,3.999c0,22.051,17.942,39.992,39.993,39.992s39.994-17.941,39.994-39.992c0-2.211,1.789-3.999,3.999-3.999
		c2.211,0,3.999,1.788,3.999,3.999C303.945,34.463,282.418,55.99,255.954,55.99z"/>
	<path style="fill:#3A3847;" d="M299.946,11.998c-2.21,0-3.999-1.789-3.999-3.999V4c0-2.211,1.789-4,3.999-4
		c2.211,0,3.999,1.789,3.999,4v3.999C303.945,10.209,302.157,11.998,299.946,11.998z"/>
	<path style="fill:#3A3847;" d="M211.961,11.998c-2.21,0-3.999-1.789-3.999-3.999V4c0-2.211,1.789-4,3.999-4c2.211,0,4,1.789,4,4
		v3.999C215.961,10.209,214.172,11.998,211.961,11.998z"/>
	<path style="fill:#3A3847;" d="M283.949,7.999h-55.991c-2.21,0-3.999-1.789-3.999-3.999c0-2.211,1.789-4,3.999-4h55.991
		c2.211,0,3.999,1.789,3.999,4C287.948,6.21,286.16,7.999,283.949,7.999z"/>
	<path style="fill:#3A3847;" d="M267.952,23.996h-23.996c-2.21,0-4-1.789-4-3.999c0-2.211,1.789-4,4-4h23.996
		c2.21,0,3.999,1.789,3.999,4C271.951,22.207,270.162,23.996,267.952,23.996z"/>
	<path style="fill:#3A3847;" d="M235.957,175.969h-39.993c-2.21,0-3.999-1.789-3.999-3.999c0-2.211,1.789-4,3.999-4h39.993
		c2.21,0,3.999,1.789,3.999,4C239.956,174.18,238.168,175.969,235.957,175.969z"/>
	<path style="fill:#3A3847;" d="M235.957,159.972h-39.993c-2.21,0-3.999-1.789-3.999-3.999c0-2.211,1.789-4,3.999-4h39.993
		c2.21,0,3.999,1.789,3.999,4C239.956,158.183,238.168,159.972,235.957,159.972z"/>
	<path style="fill:#3A3847;" d="M315.943,175.969h-39.992c-2.211,0-4-1.789-4-3.999c0-2.211,1.789-4,4-4h39.992
		c2.211,0,3.999,1.789,3.999,4C319.942,174.18,318.154,175.969,315.943,175.969z"/>
	<path style="fill:#3A3847;" d="M315.943,159.972h-39.992c-2.211,0-4-1.789-4-3.999c0-2.211,1.789-4,4-4h39.992
		c2.211,0,3.999,1.789,3.999,4C319.942,158.183,318.154,159.972,315.943,159.972z"/>
	<path style="fill:#3A3847;" d="M195.964,175.969c-2.21,0-3.999-1.789-3.999-3.999v-15.997c0-2.211,1.789-4,3.999-4
		c2.211,0,4,1.789,4,4v15.997C199.964,174.18,198.175,175.969,195.964,175.969z"/>
	<path style="fill:#3A3847;" d="M315.943,175.969c-2.211,0-3.999-1.789-3.999-3.999v-15.997c0-2.211,1.788-4,3.999-4
		s3.999,1.789,3.999,4v15.997C319.942,174.18,318.154,175.969,315.943,175.969z"/>
	<path style="fill:#3A3847;" d="M255.954,179.968c-8.818,0-15.997-7.175-15.997-15.997s7.178-15.997,15.997-15.997
		c8.82,0,15.998,7.175,15.998,15.997S264.773,179.968,255.954,179.968z M255.954,155.973c-4.413,0-7.998,3.589-7.998,7.998
		s3.585,7.999,7.998,7.999c4.414,0,8-3.59,8-7.999S260.367,155.973,255.954,155.973z"/>
	<path style="fill:#3A3847;" d="M255.954,479.914c-2.21,0-3.999-1.789-3.999-4v-271.95c0-2.211,1.789-4,3.999-4c2.211,0,4,1.789,4,4
		v271.95C259.953,478.125,258.165,479.914,255.954,479.914z"/>
	<path style="fill:#3A3847;" d="M155.972,451.606c-0.086,0-0.172,0-0.258-0.008c-2.203-0.141-3.875-2.046-3.734-4.249
		c0.078-1.242,8.694-125.798,64.355-245.077c0.937-2.004,3.304-2.855,5.319-1.934c2,0.934,2.867,3.316,1.929,5.315
		c-55.037,117.937-63.543,240.984-63.621,242.211C159.823,449.981,158.065,451.606,155.972,451.606z"/>
	<path style="fill:#3A3847;" d="M363.934,451.606c-2.093,0-3.851-1.625-3.991-3.741c-0.078-1.227-8.615-124.337-63.621-242.211
		c-0.938-1.999-0.07-4.382,1.929-5.315c2.016-0.922,4.382-0.07,5.319,1.934c55.662,119.279,64.277,243.835,64.355,245.077
		c0.141,2.203-1.53,4.108-3.733,4.249C364.106,451.606,364.02,451.606,363.934,451.606z"/>
</g>
<g>
</g>
<g>
</g>
<g>
</g>
<g>
</g>
<g>
</g>
<g>
</g>
<g>
</g>
<g>
</g>
<g>
</g>
<g>
</g>
<g>
</g>
<g>
</g>
<g>
</g>
<g>
</g>
<g>
</g>
</svg>
