<?xml version="1.0" encoding="iso-8859-1"?>
<!-- Generator: Adobe Illustrator 19.0.0, SVG Export Plug-In . SVG Version: 6.00 Build 0)  -->
<svg version="1.1" id="Layer_1" xmlns="http://www.w3.org/2000/svg" xmlns:xlink="http://www.w3.org/1999/xlink" x="0px" y="0px"
	 viewBox="0 0 511.968 511.968" style="enable-background:new 0 0 511.968 511.968;" xml:space="preserve">
<polygon style="fill:#F4F6F9;" points="463.3,211.323 401.304,170.661 356.65,145.327 287.318,128.765 198.652,128.765 
	133.992,152.662 66.66,199.323 16.663,251.984 66.66,315.316 153.991,365.977 273.32,383.976 349.978,361.314 445.3,311.316 
	497.298,251.984 "/>
<path style="fill:#9ED36A;" d="M363.447,236.227c0,59.349-48.106,107.462-107.463,107.462c-59.348,0-107.454-48.113-107.454-107.462
	c0-59.348,48.106-107.462,107.454-107.462C315.34,128.765,363.447,176.88,363.447,236.227z"/>
<path d="M255.984,117.328C150.546,117.328,57.208,172.012,0,255.984C57.208,339.956,150.546,394.64,255.984,394.64
	c105.447,0,198.785-54.685,255.984-138.656C454.769,172.012,361.431,117.328,255.984,117.328z M188.097,166.77
	c18.14-18.124,42.248-28.115,67.887-28.115c25.64,0,49.748,9.991,67.871,28.115c18.14,18.132,28.123,42.24,28.123,67.879
	c0,25.647-9.983,49.747-28.123,67.879c-18.123,18.132-42.231,28.116-67.871,28.116c-25.639,0-49.747-9.984-67.887-28.116
	c-18.123-18.132-28.107-42.231-28.107-67.879C159.99,209.01,169.974,184.902,188.097,166.77z M448.238,297.365
	c-17.279,15.873-36.294,29.592-56.496,40.771c-20.529,11.366-42.311,20.116-64.746,26.021c-23.092,6.07-46.981,9.155-71.012,9.155
	c-24.029,0-47.919-3.085-71.011-9.155c-22.437-5.905-44.209-14.655-64.738-26.021c-20.21-11.179-39.217-24.897-56.505-40.771
	c-13.655-12.547-26.225-26.421-37.497-41.381c11.272-14.96,23.842-28.834,37.497-41.381c17.288-15.874,36.295-29.592,56.505-40.771
	c17.062-9.445,34.99-17.085,53.441-22.78c-21.607,21.28-35.021,50.872-35.021,83.597c0,64.802,52.535,117.329,117.328,117.329
	s117.321-52.527,117.321-117.329c0-32.725-13.405-62.316-35.013-83.597c18.451,5.695,36.388,13.335,53.449,22.78
	c20.202,11.179,39.217,24.896,56.496,40.771c13.656,12.547,26.233,26.421,37.498,41.381
	C474.471,270.944,461.894,284.818,448.238,297.365z"/>
<path d="M191.988,245.32c5.891,0,10.672-4.78,10.672-10.671c0-29.404,23.92-53.325,53.324-53.325c5.891,0,10.672-4.78,10.672-10.671
	s-4.781-10.663-10.672-10.663c-41.231,0-74.667,33.428-74.667,74.659C181.317,240.54,186.098,245.32,191.988,245.32z"/>
<g>
</g>
<g>
</g>
<g>
</g>
<g>
</g>
<g>
</g>
<g>
</g>
<g>
</g>
<g>
</g>
<g>
</g>
<g>
</g>
<g>
</g>
<g>
</g>
<g>
</g>
<g>
</g>
<g>
</g>
</svg>
