<?xml version="1.0" encoding="iso-8859-1"?>
<!-- Generator: Adobe Illustrator 19.0.0, SVG Export Plug-In . SVG Version: 6.00 Build 0)  -->
<svg version="1.1" id="Capa_1" xmlns="http://www.w3.org/2000/svg" xmlns:xlink="http://www.w3.org/1999/xlink" x="0px" y="0px"
	 viewBox="0 0 512 512" style="enable-background:new 0 0 512 512;" xml:space="preserve">
<path style="fill:#EDEBEC;" d="M256,127.749c-100.027,0-189.405,49.922-248.485,128.25C66.595,334.329,155.973,384.25,256,384.25
	S445.404,334.329,504.485,256C445.404,177.671,356.026,127.749,256,127.749z"/>
<path style="fill:#DCD7D8;" d="M272.031,360.203c-99.031,0-187.618-48.938-246.707-125.924c-6.202,6.968-12.147,14.212-17.81,21.72
	C66.596,334.329,155.973,384.25,256,384.25S445.404,334.329,504.485,256c-0.588-0.78-1.184-1.552-1.778-2.327
	C444.201,319.391,362.47,360.203,272.031,360.203z"/>
<circle style="fill:#55D3FA;" cx="256" cy="256" r="112.219"/>
<path style="fill:#56C4F0;" d="M272.031,344.172c-61.977,0-112.219-50.242-112.219-112.219c0-17.828,4.164-34.68,11.562-49.649
	c-17.184,19.715-27.593,45.489-27.593,73.696c0,61.977,50.242,112.219,112.219,112.219c44.149,0,82.337-25.499,100.658-62.57
	C336.084,329.253,305.801,344.172,272.031,344.172z"/>
<circle style="fill:#614A50;" cx="256" cy="256" r="40.078"/>
<path d="M510.484,251.474C447.574,168.069,354.819,120.235,256,120.235S64.425,168.07,1.515,251.474c-2.02,2.679-2.02,6.371,0,9.051
	C64.425,343.93,157.181,391.765,256,391.765s191.574-47.834,254.484-131.239C512.505,257.846,512.505,254.153,510.484,251.474z
	 M256,376.736c-92.263,0-179.064-43.928-239.014-120.736C76.936,179.192,163.737,135.264,256,135.264
	c92.262,0,179.063,43.928,239.014,120.736C435.063,332.808,348.262,376.736,256,376.736z"/>
<path d="M334.746,175.697c-3.096,2.764-3.366,7.515-0.603,10.611c17.128,19.19,26.562,43.942,26.562,69.692
	c0,57.734-46.971,104.704-104.704,104.704c-57.735,0-104.704-46.971-104.704-104.704S198.265,151.295,256,151.295
	c16.904,0,33.036,3.902,47.945,11.596c3.686,1.901,8.22,0.456,10.124-3.232c1.903-3.688,0.456-8.221-3.232-10.124
	c-16.821-8.681-35.783-13.269-54.836-13.269c-66.022,0-119.734,53.712-119.734,119.734S189.978,375.734,256,375.734
	S375.734,322.021,375.734,256c0-29.448-10.789-57.752-30.377-79.7C342.593,173.204,337.843,172.934,334.746,175.697z"/>
<path d="M208.407,256c0,26.242,21.351,47.593,47.593,47.593c26.242,0,47.593-21.351,47.593-47.593S282.242,208.407,256,208.407
	S208.407,229.757,208.407,256z M288.564,256c0,17.956-14.608,32.564-32.564,32.564c-17.955,0-32.564-14.608-32.564-32.564
	s14.609-32.564,32.564-32.564C273.956,223.436,288.564,238.044,288.564,256z"/>
<g>
</g>
<g>
</g>
<g>
</g>
<g>
</g>
<g>
</g>
<g>
</g>
<g>
</g>
<g>
</g>
<g>
</g>
<g>
</g>
<g>
</g>
<g>
</g>
<g>
</g>
<g>
</g>
<g>
</g>
</svg>
