<?xml version="1.0" encoding="iso-8859-1"?>
<!-- Generator: Adobe Illustrator 19.0.0, SVG Export Plug-In . SVG Version: 6.00 Build 0)  -->
<svg version="1.1" id="Capa_1" xmlns="http://www.w3.org/2000/svg" xmlns:xlink="http://www.w3.org/1999/xlink" x="0px" y="0px"
	 viewBox="0 0 423.253 423.253" style="enable-background:new 0 0 423.253 423.253;" xml:space="preserve">
<polyline style="fill:#2A8EE6;" points="83.101,18.107 13.747,98.636 61.078,161.467 102.494,134.947 "/>
<path d="M61.083,168.295c-2.079,0-4.122-0.947-5.458-2.72L8.294,102.742c-1.932-2.565-1.816-6.129,0.28-8.562l69.354-80.527
	c2.461-2.857,6.77-3.178,9.627-0.717c2.857,2.459,3.178,6.77,0.718,9.627L22.509,98.921l40.214,53.385l36.087-23.11
	c3.174-2.033,7.397-1.106,9.431,2.067c2.033,3.174,1.108,7.397-2.068,9.431l-41.416,26.522
	C63.623,167.944,62.346,168.295,61.083,168.295z"/>
<polyline style="fill:#2A8EE6;" points="342.084,18.107 411.44,98.636 364.109,161.467 322.693,134.947 "/>
<path d="M364.104,168.295c-1.265,0-2.54-0.352-3.676-1.079l-41.416-26.522c-3.174-2.033-4.101-6.257-2.068-9.431
	c2.033-3.174,6.255-4.101,9.431-2.067l36.089,23.11l40.214-53.385l-65.766-76.36c-2.461-2.857-2.138-7.168,0.719-9.627
	c2.857-2.459,7.168-2.138,9.627,0.717l69.356,80.527c2.096,2.434,2.212,5.997,0.28,8.562l-47.331,62.833
	C368.225,167.348,366.181,168.294,364.104,168.295z"/>
<path style="fill:#2BBBE9;" d="M108.245,177.493L80.078,18.471l63.053-11.645c12.875,45.254,36.516,70.487,66.649,69.176
	c30.14,1.311,53.78-23.922,66.657-69.176l63.055,11.645l-28.17,159.022"/>
<path d="M311.33,184.321c-0.396,0-0.795-0.034-1.198-0.106c-3.712-0.657-6.188-4.2-5.531-7.912l26.988-152.349l-50.372-9.303
	c-14.384,45.418-39.706,69.569-71.73,68.173c-31.452,1.398-56.747-22.755-71.129-68.173l-50.372,9.303l26.986,152.349
	c0.657,3.712-1.819,7.255-5.531,7.912c-3.712,0.66-7.255-1.818-7.912-5.531L73.356,19.662c-0.654-3.693,1.794-7.223,5.482-7.904
	l63.055-11.645c3.461-0.637,6.842,1.459,7.806,4.845c12.111,42.564,33.34,65.372,59.786,64.225
	c27.039,1.135,48.276-21.659,60.387-64.225c0.964-3.386,4.343-5.48,7.806-4.845l63.055,11.645c3.688,0.681,6.137,4.21,5.482,7.904
	l-28.169,159.022C317.459,181.993,314.578,184.321,311.33,184.321z"/>
<polyline style="fill:#2BBBE9;" points="107.289,218.453 11.812,413.893 78.732,388.123 143.71,414.83 210.888,388.123 
	275.866,414.83 343.043,388.123 407.758,416.426 312.277,218.453 "/>
<path d="M407.755,423.253c-0.922,0-1.853-0.186-2.734-0.572l-62.102-27.162l-64.531,25.655c-1.645,0.655-3.48,0.643-5.117-0.029
	l-62.425-25.658l-64.613,25.687c-1.645,0.654-3.48,0.643-5.117-0.029L78.652,395.47l-64.386,24.794
	c-2.62,1.009-5.589,0.311-7.485-1.758c-1.896-2.069-2.333-5.088-1.103-7.61l95.479-195.441c1.655-3.388,5.743-4.792,9.131-3.137
	s4.792,5.743,3.137,9.131l-87.854,179.83l50.707-19.526c1.628-0.628,3.436-0.606,5.048,0.056l62.425,25.658l64.614-25.687
	c1.645-0.655,3.48-0.643,5.117,0.029l62.425,25.658l64.613-25.687c1.695-0.674,3.587-0.64,5.258,0.089l47.819,20.914l-87.47-181.364
	c-1.638-3.396-0.213-7.477,3.183-9.115c3.396-1.637,7.477-0.212,9.114,3.183l95.479,197.973c1.241,2.572,0.749,5.646-1.234,7.702
	C411.359,422.527,409.573,423.253,407.755,423.253z"/>
<polygon style="fill:#F87EA1;" points="107.385,170.666 312.185,170.666 312.185,218.453 107.385,218.453 "/>
<path d="M312.185,225.279h-204.8c-3.77,0-6.827-3.057-6.827-6.827v-47.787c0-3.77,3.057-6.827,6.827-6.827h204.8
	c3.77,0,6.827,3.057,6.827,6.827v47.787C319.012,222.223,315.955,225.279,312.185,225.279z M114.212,211.626h191.147v-34.133
	H114.212V211.626z"/>
<path d="M209.785,279.893c-3.77,0-6.827-3.057-6.827-6.827v-54.613c0-3.77,3.057-6.827,6.827-6.827c3.77,0,6.827,3.057,6.827,6.827
	v54.613C216.612,276.836,213.555,279.893,209.785,279.893z"/>
<path d="M141.524,279.894c-0.548,0-1.104-0.067-1.661-0.207c-3.657-0.915-5.881-4.622-4.966-8.279l13.653-54.613
	c0.915-3.657,4.62-5.885,8.279-4.966c3.657,0.915,5.881,4.622,4.966,8.279l-13.653,54.613
	C147.365,277.824,144.582,279.894,141.524,279.894z"/>
<path d="M278.045,279.894c-3.058,0-5.842-2.07-6.618-5.173l-13.653-54.613c-0.915-3.657,1.309-7.364,4.966-8.279
	c3.657-0.916,7.364,1.309,8.279,4.966l13.653,54.613c0.915,3.657-1.309,7.364-4.966,8.279
	C279.151,279.828,278.594,279.894,278.045,279.894z"/>
<g>
</g>
<g>
</g>
<g>
</g>
<g>
</g>
<g>
</g>
<g>
</g>
<g>
</g>
<g>
</g>
<g>
</g>
<g>
</g>
<g>
</g>
<g>
</g>
<g>
</g>
<g>
</g>
<g>
</g>
</svg>
