<?xml version="1.0" encoding="iso-8859-1"?>
<!-- Generator: Adobe Illustrator 19.0.0, SVG Export Plug-In . SVG Version: 6.00 Build 0)  -->
<svg version="1.1" id="Capa_1" xmlns="http://www.w3.org/2000/svg" xmlns:xlink="http://www.w3.org/1999/xlink" x="0px" y="0px"
	 viewBox="0 0 512 512" style="enable-background:new 0 0 512 512;" xml:space="preserve">
<g>
	<path style="fill:#1689FC;" d="M255.985,346c-2.622,0-5.288-0.688-7.705-2.139c-7.104-4.263-9.404-13.477-5.142-20.581L319.501,196
		H204.496l-39.316,65.537c-4.263,7.104-13.462,9.404-20.581,5.142c-7.104-4.263-9.404-13.477-5.142-20.581l43.682-72.817
		c2.71-4.512,7.588-7.28,12.861-7.28h150c5.405,0,10.386,2.9,13.052,7.603s2.593,10.474-0.19,15.117l-90,150
		C266.049,343.407,261.083,346,255.985,346z"/>
	<path style="fill:#1689FC;" d="M196,196c-8.291,0-15-6.709-15-15v-60c0-8.291,6.709-15,15-15s15,6.709,15,15v60
		C211,189.291,204.291,196,196,196z"/>
	<path style="fill:#1689FC;" d="M374.389,261.713c-6.064,0-11.792-3.706-14.048-9.727L301.952,96.273
		c-1.729-4.614-1.084-9.771,1.714-13.813C306.479,78.417,311.078,76,316,76h120c8.291,0,15,6.709,15,15v15c0,33.091-26.909,60-60,60
		c-8.291,0-15-6.709-15-15s6.709-15,15-15c16.538,0,30-13.462,30-30h-83.35l50.786,135.439c2.9,7.764-1.025,16.406-8.774,19.321
		C377.919,261.405,376.146,261.713,374.389,261.713z"/>
</g>
<g>
	<path style="fill:#57555C;" d="M226,136h-60c-8.291,0-15-6.709-15-15s6.709-15,15-15h60c8.291,0,15,6.709,15,15
		S234.291,136,226,136z"/>
	<path style="fill:#57555C;" d="M406,226c-57.9,0-105,47.1-105,105s47.1,105,105,105s106-47.1,106-105S463.9,226,406,226z
		 M459.638,383.861C445.174,398.138,426.125,406,406,406c-41.355,0-75-33.645-75-75s33.645-75,75-75
		c20.125,0,39.174,7.863,53.638,22.139C474.059,292.372,482,311.145,482,331S474.059,369.628,459.638,383.861z"/>
</g>
<path style="fill:#3C3A41;" d="M482,331c0,19.855-7.941,38.628-22.362,52.861C445.174,398.138,426.125,406,406,406
	c-41.355,0-75-33.645-75-75h-30c0,57.9,47.1,105,105,105s106-47.1,106-105H482z"/>
<path style="fill:#57555C;" d="M106,226C48.1,226,0,273.1,0,331s48.1,105,106,105s105-47.1,105-105S163.9,226,106,226z M106,406
	c-20.125,0-39.174-7.862-53.638-22.139C37.941,369.628,30,350.855,30,331s7.941-38.628,22.362-52.861
	C66.826,263.863,85.875,256,106,256c41.355,0,75,33.645,75,75S147.355,406,106,406z"/>
<path style="fill:#3C3A41;" d="M181,331c0,41.355-33.645,75-75,75c-20.125,0-39.174-7.862-53.638-22.139
	C37.941,369.628,30,350.855,30,331H0c0,57.9,48.1,105,106,105s105-47.1,105-105H181z"/>
<g>
	<path style="fill:#C8C6CD;" d="M226,286c-24.901,0-45,20.099-45,45s20.099,45,45,45s45-20.099,45-45S250.901,286,226,286z"/>
	<path style="fill:#C8C6CD;" d="M106,286c-24.901,0-45,20.099-45,45s20.099,45,45,45s45-20.099,45-45S130.901,286,106,286z"/>
	<path style="fill:#C8C6CD;" d="M406,286c-24.901,0-45,20.099-45,45s20.099,45,45,45s45-20.099,45-45S430.901,286,406,286z"/>
</g>
<g>
	<path style="fill:#AEADB3;" d="M61,331h90c0,24.901-20.099,45-45,45S61,355.901,61,331z"/>
	<path style="fill:#AEADB3;" d="M181,331h90c0,24.901-20.099,45-45,45S181,355.901,181,331z"/>
	<path style="fill:#AEADB3;" d="M451,331c0,24.901-20.099,45-45,45s-45-20.099-45-45H451z"/>
</g>
<g>
</g>
<g>
</g>
<g>
</g>
<g>
</g>
<g>
</g>
<g>
</g>
<g>
</g>
<g>
</g>
<g>
</g>
<g>
</g>
<g>
</g>
<g>
</g>
<g>
</g>
<g>
</g>
<g>
</g>
</svg>
