<?xml version="1.0" encoding="iso-8859-1"?>
<!-- Generator: Adobe Illustrator 18.0.0, SVG Export Plug-In . SVG Version: 6.00 Build 0)  -->
<!DOCTYPE svg PUBLIC "-//W3C//DTD SVG 1.1//EN" "http://www.w3.org/Graphics/SVG/1.1/DTD/svg11.dtd">
<svg version="1.1" id="Capa_1" xmlns="http://www.w3.org/2000/svg" xmlns:xlink="http://www.w3.org/1999/xlink" x="0px" y="0px"
	 viewBox="0 0 512 512" style="enable-background:new 0 0 512 512;" xml:space="preserve">
<g>
	<path style="fill:#A25425;" d="M496,288h-16V97.613c0-4.617,1.74-8.936,4.236-12.82C486.61,81.099,488,76.723,488,72
		c0-14.666-13.154-26.259-28.308-23.625c-9.698,1.686-17.625,9.666-19.318,19.362c-1.153,6.602,0.436,12.751,3.772,17.631
		c2.3,3.366,3.854,7.182,3.854,11.259V136c0-17.673-14.327-32-32-32H96c-17.673,0-32,14.327-32,32V97.613
		c0-4.617,1.74-8.936,4.236-12.82C70.61,81.099,72,76.723,72,72c0-14.666-13.154-26.259-28.308-23.625
		c-9.698,1.686-17.625,9.666-19.318,19.362c-1.153,6.602,0.436,12.751,3.772,17.631C30.446,88.734,32,92.551,32,96.628V288H16
		c-8.836,0-16,7.163-16,16v112c0,8.836,7.164,16,16,16h480c8.836,0,16-7.164,16-16V304C512,295.163,504.836,288,496,288z M448,288
		H64v-24c0-8.837,7.164-16,16-16h16v-43.939c0-5.644-2.693-10.651-6.233-15.046C88.662,187.643,88,185.899,88,184
		c0-4.418,3.582-8,8-8c1.898,0,3.643,0.661,5.015,1.766c4.396,3.54,9.402,6.234,15.046,6.234h71.879
		c5.644,0,10.65-2.694,15.046-6.234c1.372-1.105,3.116-1.766,5.015-1.766c4.418,0,8,3.582,8,8c0,1.898-0.662,3.643-1.767,5.015
		c-3.54,4.395-6.233,9.402-6.233,15.046V248h96v-43.939c0-5.644-2.693-10.651-6.233-15.046C296.662,187.643,296,185.899,296,184
		c0-4.418,3.582-8,8-8c1.898,0,3.643,0.661,5.015,1.766c4.396,3.54,9.402,6.234,15.046,6.234h71.879
		c5.644,0,10.65-2.694,15.046-6.234c1.372-1.105,3.116-1.766,5.015-1.766c4.418,0,8,3.582,8,8c0,1.898-0.662,3.643-1.767,5.015
		c-3.54,4.395-6.233,9.402-6.233,15.046V248h16c8.836,0,16,7.163,16,16V288z"/>
	<path style="fill:#7F4122;" d="M43.692,48.375c-0.045,0.008-0.087,0.026-0.132,0.034C55.104,50.149,64,59.971,64,72
		c0,4.723-1.39,9.099-3.764,12.793C57.74,88.677,56,92.996,56,97.613V288h8V97.613c0-4.617,1.74-8.936,4.236-12.82
		C70.61,81.099,72,76.723,72,72C72,57.334,58.846,45.741,43.692,48.375z"/>
	<path style="fill:#7F4122;" d="M459.692,48.375c-0.045,0.008-0.087,0.026-0.132,0.034C471.103,50.149,480,59.971,480,72
		c0,4.723-1.39,9.099-3.764,12.793C473.74,88.677,472,92.996,472,97.613V288h8V97.613c0-4.617,1.74-8.936,4.236-12.82
		C486.61,81.099,488,76.723,488,72C488,57.334,474.846,45.741,459.692,48.375z"/>
	<path style="fill:#7F4122;" d="M496,320v80c0,8.837-7.163,16-16,16H32c-8.837,0-16,7.163-16,16l0,0h440H72h424
		c8.837,0,16-7.163,16-16V304l0,0C503.163,304,496,311.163,496,320z"/>
	<path style="fill:#E2E4E6;" d="M208,176c-1.899,0-3.643,0.661-5.014,1.766c-4.395,3.54-9.402,6.234-15.046,6.234h-71.879
		c-5.644,0-10.651-2.694-15.046-6.234C99.643,176.661,97.899,176,96,176c-4.418,0-8,3.582-8,8c0,1.899,0.661,3.643,1.766,5.015
		c3.54,4.395,6.234,9.402,6.234,15.046V248h112v-43.94c0-5.644,2.693-10.651,6.234-15.046c1.105-1.372,1.766-3.116,1.766-5.015
		C216,179.582,212.418,176,208,176z"/>
	<path style="fill:#E2E4E6;" d="M416,176c-1.899,0-3.643,0.661-5.014,1.766c-4.395,3.54-9.402,6.234-15.046,6.234h-71.879
		c-5.644,0-10.651-2.694-15.046-6.234C307.643,176.661,305.899,176,304,176c-4.418,0-8,3.582-8,8c0,1.899,0.661,3.643,1.766,5.015
		c3.54,4.395,6.234,9.402,6.234,15.046V248h112v-43.94c0-5.644,2.693-10.651,6.234-15.046c1.105-1.372,1.766-3.116,1.766-5.015
		C424,179.582,420.418,176,416,176z"/>
	<path style="fill:#D0D7DA;" d="M416,184c-5.644,0-8,10.356-8,16v24c0,8.837-7.163,16-16,16h-80c-4.418,0-8,3.582-8,8h112l0-43.939
		c0-5.644,2.693-10.65,6.233-15.046C423.338,187.643,423.517,184,416,184z"/>
	<path style="fill:#D0D7DA;" d="M208,184c-5.644,0-8,10.356-8,16v24c0,8.837-7.163,16-16,16h-80c-4.418,0-8,3.582-8,8h112l0-43.939
		c0-5.644,2.693-10.65,6.233-15.046C215.338,187.643,215.517,184,208,184z"/>
	<path style="fill:#BABCBE;" d="M448,264h-8c-4.418,0-8,3.582-8,8l0,0l-352,0c-8.837,0-16,7.163-16,16v0h384V264z"/>
	<path style="fill:#C5C9CC;" d="M80,272h352c0-4.418,3.582-8,8-8h8c0-8.837-7.164-16-16-16H80c-8.836,0-16,7.163-16,16v24
		C64,279.163,71.164,272,80,272z"/>
	<path style="fill:#73371B;" d="M48,456c0,4.398,3.602,8,8,8h48c4.398,0,8-3.602,8-8v-24H48V456z"/>
	<path style="fill:#73371B;" d="M400,456c0,4.398,3.602,8,8,8h48c4.398,0,8-3.602,8-8v-24h-64V456z"/>
</g>
<g>
</g>
<g>
</g>
<g>
</g>
<g>
</g>
<g>
</g>
<g>
</g>
<g>
</g>
<g>
</g>
<g>
</g>
<g>
</g>
<g>
</g>
<g>
</g>
<g>
</g>
<g>
</g>
<g>
</g>
</svg>
