<?xml version="1.0" encoding="iso-8859-1"?>
<!-- Generator: Adobe Illustrator 19.0.0, SVG Export Plug-In . SVG Version: 6.00 Build 0)  -->
<svg version="1.1" id="Capa_1" xmlns="http://www.w3.org/2000/svg" xmlns:xlink="http://www.w3.org/1999/xlink" x="0px" y="0px"
	 viewBox="0 0 405.917 405.917" style="enable-background:new 0 0 405.917 405.917;" xml:space="preserve">
<g>
	<circle style="fill:#EDA86B;" cx="240.8" cy="184.587" r="26.4"/>
	<path style="fill:#EDA86B;" d="M158.4,377.387c-25.6,0-47.2-20.8-47.2-46.4s20.8-47.2,46.4-47.2s47.2,20.8,47.2,46.4l0,0
		C204.8,355.787,184,377.387,158.4,377.387z M158.4,314.187c-8.8,0-16,7.2-16,16s7.2,16,16,16c8.8,0,16-7.2,16-16
		S167.2,314.187,158.4,314.187z"/>
</g>
<g>
	<path style="fill:#EA7878;" d="M268,184.587l-1.6-5.6c-2.4-9.6-9.6-16.8-19.2-19.2l-6.4-1.6v-129.6l8,0.8
		c79.2,4,143.2,68,147.2,147.2l0.8,8H268z"/>
	<path style="fill:#EA7878;" d="M240.8,340.587c-10.4,0-20-0.8-29.6-3.2l-6.4-1.6v-6.4c0-25.6-20.8-46.4-47.2-46.4
		c-8,0-16,2.4-23.2,6.4l-5.6,3.2l-4-4.8c-23.2-26.4-37.6-60-39.2-95.2l-0.8-8h129.6l1.6,6.4c3.2,14.4,17.6,23.2,31.2,19.2
		c9.6-2.4,17.6-9.6,19.2-19.2l1.6-6.4h128.8l-0.8,8c-1.6,35.2-15.2,68.8-39.2,95.2l-4,4.8l-5.6-3.2c-22.4-12.8-51.2-5.6-64,16.8
		c-4,7.2-6.4,15.2-6.4,23.2v6.4l-6.4,1.6C260.8,339.787,251.2,340.587,240.8,340.587z"/>
</g>
<path style="fill:#EDA86B;" d="M324,377.387c-25.6,0-47.2-20.8-47.2-46.4s20.8-47.2,46.4-47.2s47.2,20.8,47.2,46.4l0,0
	C371.2,355.787,350.4,377.387,324,377.387z M324,314.187c-8.8,0-16,7.2-16,16s7.2,16,16,16s16-7.2,16-16S332.8,314.187,324,314.187z
	"/>
<g>
	<path style="fill:#1E0E10;" d="M158.4,306.187c-13.6,0-24,10.4-24,24s10.4,24,24,24s24-10.4,24-24S171.2,306.187,158.4,306.187z
		 M158.4,338.187c-4.8,0-8-3.2-8-8s3.2-8,8-8c4.8,0,8,3.2,8,8C166.4,334.187,163.2,338.187,158.4,338.187L158.4,338.187
		L158.4,338.187z"/>
	<path style="fill:#1E0E10;" d="M324,306.187c-13.6,0-24,10.4-24,24s10.4,24,24,24s24-10.4,24-24S337.6,306.187,324,306.187z
		 M324,338.187c-4.8,0-8-3.2-8-8s3.2-8,8-8s8,3.2,8,8C332,334.187,328.8,338.187,324,338.187C324.8,338.187,324,338.187,324,338.187
		L324,338.187z"/>
	<path style="fill:#1E0E10;" d="M240.8,20.587c-4.8,0-8,3.2-8,8v122.4c-12.8,3.2-22.4,12.8-25.6,25.6H90.4l-40-73.6
		c-1.6-2.4-4-4-7.2-4H8c-4.8,0-8,3.2-8,8s3.2,8,8,8h31.2l38.4,72c0.8,39.2,15.2,76.8,40.8,105.6c-20.8,22.4-20,56.8,2.4,77.6
		c22.4,20.8,56.8,20,77.6-2.4c5.6-6.4,10.4-13.6,12.8-21.6c20,4,40.8,4,61.6,0c8.8,28.8,39.2,45.6,68,36.8
		c28.8-8.8,45.6-39.2,36.8-68c-2.4-8-6.4-16-12.8-21.6c60-68,53.6-171.2-14.4-231.2C320,35.787,280.8,20.587,240.8,20.587z
		 M248.8,36.587c75.2,4,135.2,64.8,139.2,140H274.4c-3.2-12.8-12.8-22.4-25.6-25.6V36.587z M240.8,166.187c10.4,0,18.4,8,18.4,18.4
		s-8,18.4-18.4,18.4s-18.4-8-18.4-18.4C223.2,174.987,231.2,166.187,240.8,166.187L240.8,166.187z M158.4,369.387
		c-21.6,0-39.2-17.6-39.2-39.2s17.6-38.4,39.2-38.4c21.6,0,39.2,17.6,39.2,39.2l0,0C196.8,351.787,179.2,369.387,158.4,369.387z
		 M324,369.387c-21.6,0-39.2-17.6-39.2-38.4s17.6-39.2,38.4-39.2s39.2,17.6,39.2,38.4l0,0C363.2,351.787,345.6,369.387,324,369.387
		L324,369.387L324,369.387z M352,282.987c-26.4-15.2-59.2-6.4-74.4,20c-4.8,8-7.2,17.6-7.2,27.2c-18.4,3.2-37.6,3.2-56.8,0
		c0-30.4-24.8-54.4-54.4-54.4c-9.6,0-19.2,2.4-28,7.2c-22.4-24.8-35.2-56.8-36.8-90.4h114.4c4,18.4,22.4,29.6,40.8,25.6
		c12.8-3.2,22.4-12.8,25.6-25.6h114.4C387.2,226.187,373.6,258.187,352,282.987z"/>
</g>
<g>
</g>
<g>
</g>
<g>
</g>
<g>
</g>
<g>
</g>
<g>
</g>
<g>
</g>
<g>
</g>
<g>
</g>
<g>
</g>
<g>
</g>
<g>
</g>
<g>
</g>
<g>
</g>
<g>
</g>
</svg>
