<?xml version="1.0" encoding="iso-8859-1"?>
<!-- Generator: Adobe Illustrator 19.0.0, SVG Export Plug-In . SVG Version: 6.00 Build 0)  -->
<svg version="1.1" id="Capa_1" xmlns="http://www.w3.org/2000/svg" xmlns:xlink="http://www.w3.org/1999/xlink" x="0px" y="0px"
	 viewBox="0 0 512 512" style="enable-background:new 0 0 512 512;" xml:space="preserve">
<g>
	<g transform="translate(3 1)">
		<g>
			<path style="fill:#CFD8DC;" d="M193.267,92.867c-0.007,5.995-1.596,11.883-4.608,17.067L120.733,127h-64
				C37.882,127,22.6,111.718,22.6,92.867s15.282-34.133,34.133-34.133c0.031-23.319,15.82-43.669,38.4-49.493
				c4.172-1.134,8.477-1.708,12.8-1.707c28.268,0.022,51.178,22.932,51.2,51.2c9.054-0.003,17.737,3.593,24.139,9.995
				C189.674,75.13,193.269,83.813,193.267,92.867z"/>
			<path style="fill:#CFD8DC;" d="M500.467,109.934c0.002,9.053-3.593,17.737-9.995,24.139c-6.402,6.402-15.085,9.997-24.139,9.995
				h-68.267L329.8,109.934c-0.003-9.054,3.593-17.737,9.995-24.139c6.402-6.402,15.085-9.997,24.139-9.995
				c0.031-23.319,15.82-43.669,38.4-49.493c4.172-1.134,8.477-1.708,12.8-1.707c28.268,0.022,51.178,22.932,51.2,51.2
				c9.053-0.003,17.737,3.593,24.139,9.995C496.874,92.197,500.469,100.88,500.467,109.934z"/>
		</g>
		<g>
			<path style="fill:#FFFFFF;" d="M167.667,92.867c-0.007,5.995-1.596,11.883-4.608,17.067L95.133,127h-38.4
				C37.882,127,22.6,111.718,22.6,92.867s15.282-34.133,34.133-34.133c0.031-23.319,15.82-43.669,38.4-49.493
				c22.58,5.824,38.369,26.174,38.4,49.493c9.053-0.003,17.737,3.593,24.139,9.995C164.074,75.13,167.669,83.813,167.667,92.867z"/>
			<path style="fill:#FFFFFF;" d="M474.867,109.934c0.002,9.053-3.593,17.737-9.995,24.139c-6.402,6.402-15.085,9.997-24.139,9.995
				h-42.667L329.8,109.934c-0.003-9.054,3.593-17.737,9.995-24.139c6.402-6.402,15.085-9.997,24.139-9.995
				c0.031-23.319,15.82-43.669,38.4-49.493c22.58,5.824,38.369,26.174,38.4,49.493c9.054-0.003,17.737,3.593,24.139,9.995
				C471.274,92.197,474.869,100.88,474.867,109.934z"/>
		</g>
		<polygon style="fill:#CFD8DC;" points="440.733,200.984 389.533,132.718 372.467,109.934 133.533,109.934 31.133,246.467 
			31.133,502.467 235.933,502.467 474.867,502.467 474.867,246.467 		"/>
		<rect x="235.933" y="246.467" style="fill:#607D8B;" width="238.933" height="256"/>
		<rect x="235.933" y="246.467" style="fill:#CFD8DC;" width="213.333" height="256"/>
		<polygon style="fill:#F57C00;" points="474.867,246.467 235.933,246.467 133.533,109.934 372.467,109.934 389.533,132.718 
			440.733,200.984 		"/>
		<polygon style="fill:#FF9801;" points="449.267,246.467 235.933,246.467 133.533,109.934 346.867,109.934 363.933,132.718 
			415.133,200.984 		"/>
		<path style="fill:#795548;" d="M73.8,408.6h34.133c4.713,0,8.533,3.821,8.533,8.533v85.333h-51.2v-85.333
			C65.267,412.421,69.087,408.6,73.8,408.6z"/>
		<g>
			<path style="fill:#00BCD4;" d="M73.8,297.667h34.133c4.713,0,8.533,3.82,8.533,8.533v34.133c0,4.713-3.82,8.533-8.533,8.533H73.8
				c-4.713,0-8.533-3.82-8.533-8.533V306.2C65.267,301.487,69.087,297.667,73.8,297.667z"/>
			<path style="fill:#00BCD4;" d="M159.133,297.667h34.133c4.713,0,8.533,3.82,8.533,8.533v34.133c0,4.713-3.821,8.533-8.533,8.533
				h-34.133c-4.713,0-8.533-3.82-8.533-8.533V306.2C150.6,301.487,154.421,297.667,159.133,297.667z"/>
			<path style="fill:#00BCD4;" d="M159.133,408.6h34.133c4.713,0,8.533,3.821,8.533,8.533v34.133c0,4.713-3.821,8.533-8.533,8.533
				h-34.133c-4.713,0-8.533-3.82-8.533-8.533v-34.133C150.6,412.421,154.421,408.6,159.133,408.6z"/>
			<path style="fill:#00BCD4;" d="M319.56,198.68l-38.4-51.2c-1.612-2.149-4.141-3.413-6.827-3.413H227.4
				c-3.232,0-6.187,1.826-7.632,4.717c-1.445,2.891-1.134,6.35,0.806,8.936l38.4,51.2c1.612,2.149,4.141,3.413,6.827,3.413h46.933
				c3.232,0,6.187-1.826,7.632-4.717S321.499,201.266,319.56,198.68z"/>
			<path style="fill:#00BCD4;" d="M278.6,297.667h34.133c4.713,0,8.533,3.82,8.533,8.533v34.133c0,4.713-3.82,8.533-8.533,8.533
				H278.6c-4.713,0-8.533-3.82-8.533-8.533V306.2C270.067,301.487,273.887,297.667,278.6,297.667z"/>
			<path style="fill:#00BCD4;" d="M278.6,408.6h34.133c4.713,0,8.533,3.821,8.533,8.533v34.133c0,4.713-3.82,8.533-8.533,8.533
				H278.6c-4.713,0-8.533-3.82-8.533-8.533v-34.133C270.067,412.421,273.887,408.6,278.6,408.6z"/>
			<path style="fill:#00BCD4;" d="M363.933,297.667H432.2c4.713,0,8.533,3.82,8.533,8.533v34.133c0,4.713-3.82,8.533-8.533,8.533
				h-68.267c-4.713,0-8.533-3.82-8.533-8.533V306.2C355.4,301.487,359.221,297.667,363.933,297.667z"/>
		</g>
		<path style="fill:#2E7D32;" d="M500.467,476.867v25.6H355.4v-25.6c-0.003-9.053,3.593-17.737,9.995-24.139
			s15.085-9.997,24.139-9.995h0.256c-0.173-1.416-0.258-2.841-0.256-4.267c-0.027-16.277,10.242-30.791,25.6-36.181
			c4.104-1.481,8.436-2.232,12.8-2.219c10.188-0.014,19.964,4.028,27.168,11.232c7.204,7.204,11.246,16.979,11.232,27.168
			c0.002,1.426-0.083,2.851-0.256,4.267h0.256c9.053-0.003,17.737,3.593,24.139,9.995S500.469,467.813,500.467,476.867z"/>
		<path style="fill:#4CAF50;" d="M474.867,476.867v25.6H355.4v-25.6c-0.003-9.053,3.593-17.737,9.995-24.139
			s15.085-9.997,24.139-9.995h0.256c-0.173-1.416-0.258-2.841-0.256-4.267c-0.027-16.277,10.242-30.791,25.6-36.181
			c15.358,5.391,25.628,19.905,25.6,36.181c0.002,1.426-0.083,2.851-0.256,4.267h0.256c9.054-0.003,17.737,3.593,24.139,9.995
			S474.869,467.813,474.867,476.867z"/>
	</g>
	<g>
		<path d="M110.933,290.134H76.8c-9.421,0.011-17.056,7.645-17.067,17.067v34.133c0.011,9.421,7.645,17.056,17.067,17.067h34.133
			c9.421-0.011,17.056-7.645,17.067-17.067V307.2C127.989,297.779,120.355,290.144,110.933,290.134z M76.8,341.334V307.2h34.133
			l0.009,34.133H76.8z"/>
		<path d="M196.267,290.134h-34.133c-9.421,0.011-17.056,7.645-17.067,17.067v34.133c0.011,9.421,7.645,17.056,17.067,17.067h34.133
			c9.421-0.011,17.056-7.645,17.067-17.067V307.2C213.323,297.779,205.688,290.144,196.267,290.134z M162.133,341.334V307.2h34.133
			l0.009,34.133H162.133z"/>
		<path d="M196.267,401.067h-34.133c-9.421,0.011-17.056,7.645-17.067,17.067v34.133c0.011,9.421,7.645,17.056,17.067,17.067h34.133
			c9.421-0.011,17.056-7.645,17.067-17.067v-34.133C213.323,408.712,205.688,401.078,196.267,401.067z M162.133,452.267v-34.133
			h34.133l0.009,34.133H162.133z"/>
		<path d="M329.383,194.559l-38.4-51.196c-3.229-4.289-8.281-6.816-13.65-6.829H230.4c-6.464,0.002-12.372,3.655-15.262,9.437
			c-2.89,5.782-2.266,12.7,1.612,17.872l38.4,51.196c3.229,4.289,8.281,6.816,13.65,6.829h46.933
			c6.463-0.001,12.371-3.654,15.261-9.435c2.89-5.781,2.266-12.699-1.611-17.87V194.559z M268.8,204.8l-38.4-51.2h46.933l38.4,51.2
			H268.8z"/>
		<path d="M315.733,290.134H281.6c-9.421,0.011-17.056,7.645-17.067,17.067v34.133c0.011,9.421,7.645,17.056,17.067,17.067h34.133
			c9.421-0.011,17.056-7.645,17.067-17.067V307.2C332.789,297.779,325.155,290.144,315.733,290.134z M281.6,341.334V307.2h34.133
			l0.009,34.133H281.6z"/>
		<path d="M315.733,401.067H281.6c-9.421,0.011-17.056,7.645-17.067,17.067v34.133c0.011,9.421,7.645,17.056,17.067,17.067h34.133
			c9.421-0.011,17.056-7.645,17.067-17.067v-34.133C332.789,408.712,325.155,401.078,315.733,401.067z M281.6,452.267v-34.133
			h34.133l0.009,34.133H281.6z"/>
		<path d="M366.933,358.4H435.2c9.421-0.011,17.056-7.645,17.067-17.067V307.2c-0.011-9.421-7.645-17.056-17.067-17.067h-68.267
			c-9.421,0.011-17.056,7.645-17.067,17.067v34.133C349.878,350.755,357.512,358.389,366.933,358.4z M366.933,307.2H435.2
			l0.009,34.133h-68.275V307.2z"/>
		<path d="M512,110.934c-0.025-20.459-14.546-38.03-34.633-41.908c-3.907-29.73-29.247-51.959-59.233-51.959
			c-29.986,0-55.326,22.228-59.233,51.959c-16.943,3.299-30.238,16.465-33.702,33.375H203.83c0.614-2.804,0.939-5.663,0.97-8.533
			c-0.025-20.459-14.546-38.03-34.633-41.908C166.26,22.228,140.92,0,110.933,0S55.607,22.228,51.7,51.959
			c-21.608,4.143-36.523,24.037-34.442,45.941s20.474,38.633,42.476,38.634h46.934L27.309,242.346
			c-1.108,1.477-1.708,3.274-1.708,5.121v247.467H8.533c-4.713,0-8.533,3.82-8.533,8.533S3.821,512,8.533,512h494.933
			c2.263,0.001,4.434-0.898,6.035-2.499c1.6-1.6,2.499-3.771,2.499-6.035v-25.6c-0.029-16.943-10.074-32.266-25.6-39.05v-191.35
			c-0.016-1.038-0.223-2.064-0.61-3.028c-0.142-0.319-0.305-0.629-0.487-0.928c-0.173-0.404-0.377-0.793-0.611-1.165L418.136,153.6
			h51.197C492.886,153.573,511.973,134.486,512,110.934z M460.799,238.934h-217.6l-89.6-119.467H371.2L460.799,238.934z
			 M59.733,119.467c-14.138,0-25.6-11.462-25.6-25.6s11.462-25.6,25.6-25.6c2.263,0.001,4.434-0.898,6.035-2.499
			c1.6-1.6,2.499-3.771,2.499-6.035c0-23.564,19.103-42.667,42.667-42.667S153.6,36.169,153.6,59.734
			c-0.001,2.263,0.898,4.434,2.499,6.035c1.6,1.6,3.771,2.499,6.035,2.499c14.132,0.015,25.585,11.468,25.6,25.6
			c-0.058,2.921-0.627,5.809-1.681,8.533h-49.519c-2.506,0.023-4.872,1.165-6.448,3.113c-0.107,0.125-0.277,0.166-0.376,0.299
			l-10.241,13.654H59.733z M76.8,494.934v-76.8h34.133v76.8H76.8z M128,494.934v-76.8c-0.011-9.421-7.645-17.056-17.067-17.067H76.8
			c-9.421,0.011-17.056,7.645-17.067,17.067v76.8H42.667V250.313l93.867-125.158L230.4,250.313v244.621H128z M247.467,494.934V256
			h221.867v156.568c-11.361-16.273-31.742-23.624-50.875-18.349c-19.133,5.275-32.868,22.031-34.285,41.827
			c-19.928,4.005-34.276,21.495-34.307,41.821v17.067H247.467z M494.934,477.867v17.067h-128v-17.067
			c0.022-6.828,2.762-13.365,7.614-18.169c4.852-4.804,11.417-7.478,18.244-7.431c0.187,0,0.34-0.094,0.523-0.106
			c0.192-0.014,0.366,0.063,0.56,0.035c0.377-0.097,0.746-0.222,1.105-0.373c1.504-0.446,2.874-1.258,3.988-2.363
			c0.559-0.622,1.021-1.324,1.371-2.083c0.078-0.167,0.176-0.311,0.243-0.483c0.38-0.955,0.579-1.973,0.587-3.001
			c0.001-0.056,0.031-0.102,0.031-0.158l-0.015-0.07c0.046-0.336,0.07-0.674,0.073-1.013c-0.132-1.056-0.196-2.119-0.192-3.183
			c0-16.495,13.372-29.867,29.867-29.867c16.495,0,29.867,13.372,29.867,29.867c0.004,1.064-0.06,2.127-0.192,3.183
			c0.003,0.338,0.027,0.675,0.073,1.01l-0.014,0.074c0,0.051,0.029,0.093,0.03,0.144c0.01,1.081,0.233,2.15,0.655,3.146l0.04,0.08
			c0.43,0.982,1.044,1.872,1.81,2.621l0.107,0.094c0.711,0.681,1.539,1.23,2.444,1.62c0.257,0.118,0.527,0.176,0.796,0.269
			c0.781,0.405,1.655,0.598,2.534,0.559l0.13-0.024l0.12,0.024C483.466,452.282,494.918,463.735,494.934,477.867z M382.3,105.817
			c-1.613-2.15-4.145-3.416-6.833-3.417h-32.561c3.592-10.199,13.214-17.033,24.028-17.067c2.263,0.001,4.434-0.898,6.035-2.499
			s2.499-3.771,2.499-6.035c0-15.243,8.132-29.329,21.333-36.95c13.201-7.622,29.466-7.622,42.667,0S460.8,61.557,460.8,76.8
			c-0.001,2.263,0.898,4.434,2.499,6.035c1.6,1.6,3.771,2.499,6.035,2.499c14.138,0,25.6,11.462,25.6,25.6s-11.462,25.6-25.6,25.6
			h-63.997L382.3,105.817z"/>
	</g>
</g>
<g>
</g>
<g>
</g>
<g>
</g>
<g>
</g>
<g>
</g>
<g>
</g>
<g>
</g>
<g>
</g>
<g>
</g>
<g>
</g>
<g>
</g>
<g>
</g>
<g>
</g>
<g>
</g>
<g>
</g>
</svg>
