<?xml version="1.0" encoding="iso-8859-1"?>
<!-- Generator: Adobe Illustrator 19.0.0, SVG Export Plug-In . SVG Version: 6.00 Build 0)  -->
<svg version="1.1" id="Capa_1" xmlns="http://www.w3.org/2000/svg" xmlns:xlink="http://www.w3.org/1999/xlink" x="0px" y="0px"
	 viewBox="0 0 512 512" style="enable-background:new 0 0 512 512;" xml:space="preserve">
<path style="fill:#AAC4DA;" d="M410.667,161.707l48.96-49.067L399.36,52.373l-49.067,48.96c-15.659-9.577-32.692-16.7-50.507-21.12
	c-0.373-0.096-0.736-0.224-1.12-0.32V10.667h-85.333v69.227c-0.384,0.096-0.747,0.224-1.12,0.32
	c-17.815,4.42-34.848,11.543-50.507,21.12l-49.067-48.96L52.373,112.64l48.96,49.067c-9.582,15.675-16.705,32.726-21.12,50.56
	c-0.096,0.373-0.224,0.736-0.32,1.12H10.667v85.333h69.227c0.096,0.384,0.224,0.747,0.32,1.12
	c4.425,17.797,11.548,34.811,21.12,50.453l-48.96,48.96l60.267,60.373l49.067-48.96c57.899,35.327,130.688,35.327,188.587,0
	c24.633-15.044,45.329-35.74,60.373-60.373C445.994,292.395,445.994,219.606,410.667,161.707z"/>
<circle style="fill:#D9EEF7;" cx="256" cy="256" r="96"/>
<g>
	<path style="fill:#4C5B66;" d="M112.693,470.315c-2.829-0.001-5.541-1.125-7.541-3.125L44.8,406.848
		c-4.164-4.165-4.164-10.917,0-15.083L88,348.587c-6.878-12.434-12.337-25.601-16.277-39.253H10.667
		C4.776,309.333,0,304.558,0,298.667v-85.333c0-5.891,4.776-10.667,10.667-10.667h61.056c3.941-13.648,9.401-26.812,16.277-39.243
		l-43.2-43.189c-4.164-4.165-4.164-10.917,0-15.083L105.152,44.8c4.165-4.164,10.917-4.164,15.083,0L163.424,88
		c12.43-6.878,25.594-12.338,39.243-16.277V10.667C202.667,4.776,207.442,0,213.333,0h85.333c5.891,0,10.667,4.776,10.667,10.667
		v61.056c13.649,3.939,26.812,9.399,39.243,16.277l43.189-43.2c4.165-4.164,10.917-4.164,15.083,0l60.352,60.352
		c4.164,4.165,4.164,10.917,0,15.083l-48.992,48.992l-15.083-15.083l41.451-41.451l-45.269-45.259l-41.451,41.451
		c-3.485,3.486-8.905,4.129-13.109,1.557c-15.045-9.211-31.439-16.01-48.587-20.149c-4.788-1.157-8.16-5.443-8.16-10.368V21.333h-64
		v58.592c0,4.925-3.372,9.211-8.16,10.368c-17.148,4.139-33.542,10.938-48.587,20.149c-4.205,2.572-9.624,1.928-13.109-1.557
		l-41.451-41.451l-45.259,45.259l41.451,41.451c3.48,3.483,4.124,8.896,1.557,13.099c-9.203,15.052-16.002,31.449-20.149,48.597
		c-1.157,4.788-5.443,8.16-10.368,8.16H21.333v64h58.592c4.929,0.001,9.215,3.379,10.368,8.171
		c4.145,17.146,10.943,33.539,20.149,48.587c2.572,4.205,1.928,9.624-1.557,13.109l-41.451,41.44l45.259,45.259l41.451-41.451
		l15.083,15.083L120.235,467.2C118.233,469.197,115.521,470.317,112.693,470.315L112.693,470.315z"/>
	<path style="fill:#4C5B66;" d="M170.667,256h-21.333c0.065-58.884,47.783-106.602,106.667-106.667v21.333
		C208.894,170.72,170.72,208.894,170.667,256z"/>
</g>
<circle style="fill:#D9EEF7;" cx="352" cy="352" r="42.667"/>
<path style="fill:#FFE451;" d="M501.333,320v64H453.76c-1.929,5.953-4.356,11.733-7.253,17.28l33.707,33.707l-45.227,45.227
	l-33.707-33.707c-5.547,2.898-11.327,5.324-17.28,7.253v47.573h-64V453.76c-5.953-1.929-11.733-4.356-17.28-7.253l-33.707,33.707
	l-45.227-45.227l33.707-33.707c-2.898-5.547-5.324-11.327-7.253-17.28h-47.573v-64h47.573c1.929-5.953,4.356-11.733,7.253-17.28
	l-33.707-33.707l45.227-45.227l33.707,33.707c5.547-2.898,11.327-5.324,17.28-7.253v-47.573h64v47.573
	c5.953,1.929,11.733,4.356,17.28,7.253l33.707-33.707l45.227,45.227l-33.707,33.707c2.898,5.547,5.324,11.327,7.253,17.28H501.333z
	 M394.667,352c0-23.564-19.103-42.667-42.667-42.667c-23.564,0-42.667,19.103-42.667,42.667s19.103,42.667,42.667,42.667
	C375.564,394.667,394.667,375.564,394.667,352z"/>
<g>
	<path style="fill:#4C5B66;" d="M384,512h-64c-5.891,0-10.667-4.776-10.667-10.667v-40.085c-1.472-0.576-2.944-1.195-4.416-1.856
		l-28.363,28.363c-4.165,4.164-10.917,4.164-15.083,0l-45.227-45.227c-4.164-4.165-4.164-10.917,0-15.083l28.363-28.363
		c-0.651-1.472-1.269-2.933-1.856-4.416h-40.085c-5.891,0-10.667-4.776-10.667-10.667v-64c0-5.891,4.776-10.667,10.667-10.667
		h40.085c0.587-1.483,1.205-2.944,1.856-4.416l-28.363-28.363c-4.164-4.165-4.164-10.917,0-15.083l45.227-45.227
		c2-2.001,4.713-3.125,7.541-3.125c2.829,0.001,5.541,1.125,7.541,3.125l28.363,28.363c1.472-0.647,2.944-1.266,4.416-1.856v-40.085
		c0-5.891,4.776-10.667,10.667-10.667h64c5.891,0,10.667,4.776,10.667,10.667v40.085c1.472,0.583,2.944,1.202,4.416,1.856
		l28.363-28.363c4.231-4.001,10.851-4.001,15.083,0l45.227,45.227c4.164,4.165,4.164,10.917,0,15.083l-28.363,28.363
		c0.651,1.472,1.269,2.933,1.856,4.416h40.085c5.891,0,10.667,4.776,10.667,10.667v64c0,5.891-4.776,10.667-10.667,10.667h-40.085
		c-0.587,1.483-1.205,2.944-1.856,4.416l28.363,28.363c4.164,4.165,4.164,10.917,0,15.083l-45.227,45.227
		c-4.165,4.164-10.917,4.164-15.083,0l-28.363-28.363c-1.472,0.661-2.944,1.28-4.416,1.856v40.085
		C394.667,507.224,389.891,512,384,512L384,512z M330.667,490.667h42.667V453.76c0-4.633,2.991-8.737,7.403-10.155
		c5.387-1.744,10.618-3.938,15.637-6.56c4.125-2.14,9.16-1.363,12.448,1.92l26.165,26.155l30.144-30.133l-26.165-26.165
		c-3.292-3.288-4.073-8.329-1.931-12.459c2.625-5.019,4.823-10.25,6.571-15.637c1.422-4.407,5.524-7.393,10.155-7.392h36.907
		v-42.667H453.76c-4.631,0.001-8.733-2.985-10.155-7.392c-1.748-5.387-3.946-10.618-6.571-15.637
		c-2.142-4.13-1.361-9.171,1.931-12.459l26.165-26.165l-30.144-30.144l-26.165,26.165c-3.29,3.288-8.331,4.065-12.459,1.92
		c-5.018-2.617-10.245-4.811-15.627-6.56c-4.411-1.418-7.403-5.521-7.403-10.155v-36.907h-42.667v36.907
		c0,4.633-2.992,8.737-7.403,10.155c-5.382,1.749-10.609,3.943-15.627,6.56c-4.127,2.145-9.169,1.368-12.459-1.92l-26.165-26.165
		l-30.144,30.144l26.165,26.165c3.292,3.288,4.073,8.329,1.931,12.459c-2.625,5.019-4.823,10.25-6.571,15.637
		c-1.422,4.407-5.524,7.393-10.155,7.392h-36.907v42.667h36.907c4.631-0.001,8.733,2.985,10.155,7.392
		c1.748,5.387,3.946,10.618,6.571,15.637c2.142,4.13,1.361,9.171-1.931,12.459l-26.165,26.165l30.144,30.133l26.165-26.155
		c3.288-3.283,8.323-4.06,12.448-1.92c5.019,2.622,10.25,4.816,15.637,6.56c4.411,1.418,7.403,5.521,7.403,10.155L330.667,490.667z"
		/>
	<path style="fill:#4C5B66;" d="M352,405.333c-29.455,0-53.333-23.878-53.333-53.333s23.878-53.333,53.333-53.333
		c29.455,0,53.333,23.878,53.333,53.333C405.298,381.441,381.441,405.298,352,405.333z M352,320c-17.673,0-32,14.327-32,32
		c0,17.673,14.327,32,32,32s32-14.327,32-32C384,334.327,369.673,320,352,320z"/>
</g>
<g>
</g>
<g>
</g>
<g>
</g>
<g>
</g>
<g>
</g>
<g>
</g>
<g>
</g>
<g>
</g>
<g>
</g>
<g>
</g>
<g>
</g>
<g>
</g>
<g>
</g>
<g>
</g>
<g>
</g>
</svg>
